<svg width="7601" height="6074" viewBox="0 0 7601 6074" fill="none" xmlns="http://www.w3.org/2000/svg">
<path d="M7598.56 4219.97C7593.58 4334.1 7577.29 4446.4 7549.07 4555.55C7485.3 4802.3 7360.52 5033.08 7167.64 5233.34C7164.71 5236.39 7161.76 5239.42 7158.78 5242.44C7055.13 5348.45 6932.15 5445.77 6788.76 5532.18C6784.98 5534.47 6781.18 5536.74 6777.37 5539.01C6606.14 5640.77 6406.19 5727.17 6175.78 5794.54C5947.09 5861.4 5688.36 5909.53 5397.83 5935.33C5353.48 5939.26 5308.4 5942.68 5262.56 5945.57C5020.17 5930.83 4688.24 5936.02 4314.56 5944.77C4242.84 5946.46 4169.58 5948.26 4095.1 5950.11C4054.98 5951.08 4014.53 5952.07 3973.79 5953.06C3772.02 5957.89 3563.01 5962.37 3353.17 5964.31C3233.98 5965.43 3114.51 5965.74 2995.94 5964.81C2891.99 5964 2788.74 5962.25 2686.99 5959.28C2685.5 5959.26 2684.03 5959.2 2682.55 5959.17C2680.02 5959.09 2677.49 5959.01 2674.97 5958.93C2350.9 5949.22 2042.27 5927.1 1774.78 5883.79C1532.4 5844.52 1323.81 5787.9 1168.04 5707.32C1110.63 5683.48 1055.26 5657.82 1001.93 5630.45C787.389 5520.52 605.909 5383.5 458.904 5228.28C381.777 5146.88 314.142 5060.48 256.217 4970.38C-40.9542 4508.44 -83.9805 3948.91 153.679 3464.8C155.428 3461.19 157.221 3457.61 159.016 3454C207.121 3357.94 266.322 3264.91 336.839 3176.28C344.373 3165.4 351.953 3154.61 359.629 3143.94C362.816 3139.46 366.053 3134.98 369.31 3130.54C548.431 2884.23 760.044 2693.88 986.726 2547.99C1090.32 2481.3 1197.09 2423.9 1305.34 2374.71C1663.16 2212.06 2037.24 2138.95 2367.55 2115.8C2825.65 2083.72 3105.07 1998.7 3317.04 1900.35C3321.2 1898.45 3325.33 1896.51 3329.41 1894.57C3533.35 1798.34 3675.37 1690.22 3858.32 1606.87C3862.78 1604.83 3867.27 1602.79 3871.8 1600.8C4075.88 1510.19 4332.81 1450.79 4780.6 1471.78C5405.88 1534.69 5959.99 1763.06 6407.89 2085.88C6470.5 2130.98 6531.02 2177.94 6589.4 2226.57C6834.83 2431.02 7041.86 2664.67 7203.41 2913.06C7206.13 2917.24 7208.84 2921.44 7211.54 2925.64C7275.18 3024.61 7331.59 3125.89 7380.31 3228.54C7382.06 3232.17 7383.76 3235.81 7385.46 3239.44C7536.93 3562.3 7612.59 3898.52 7598.56 4219.97Z" fill="#5283D2" fill-opacity="0.28"/>
<path d="M2265.09 1052.56L2869.5 2282.54C2882.22 2308.41 2871.55 2339.69 2845.66 2352.41C2819.79 2365.13 2788.5 2354.46 2775.79 2328.58L2171.39 1098.6C2158.67 1072.73 2169.34 1041.45 2195.22 1028.73C2221.09 1016.01 2252.38 1026.68 2265.09 1052.56Z" fill="#E0E0E0"/>
<path d="M2692.42 1947.34L2816.89 2200.67L2880.23 2169.55L2755.75 1916.22L2692.42 1947.34Z" fill="#E0E0E0"/>
<path d="M2681.11 1808C2693.02 1832.26 2683.03 1861.58 2658.77 1873.51L2565.12 1919.53C2540.86 1931.45 2511.53 1921.45 2499.6 1897.19C2487.69 1872.93 2497.69 1843.6 2521.94 1831.69L2615.59 1785.67C2639.85 1773.74 2669.19 1783.75 2681.11 1808Z" fill="#E0E0E0"/>
<path d="M2882.34 2222.96L3013.09 2158.71L2979.05 2089.43L2913.67 2121.55L2892.3 2078.06L2957.67 2045.93L2901.65 1931.94L2855.78 1954.49L2834.4 1910.99L2880.29 1888.45L2846.44 1819.56L2715.68 1883.83L2882.34 2222.96Z" fill="#E0E0E0"/>
<path d="M2109.92 1070.69L2162.52 1177.73L2348.04 1086.57L2295.44 979.526L2109.92 1070.69Z" fill="#E0E0E0"/>
<path d="M1911.87 701.146C1913.96 705.398 1916.32 709.443 1918.87 713.294C1823.96 771.349 1787.17 893.218 1837.21 995.055C1890.27 1103.03 2020.82 1147.55 2128.8 1094.49L2292.49 1014.04C2400.46 960.979 2444.99 830.437 2391.92 722.453C2341.12 619.062 2219.28 573.92 2114.22 616.851C2112.75 612.611 2111.04 608.396 2109 604.266C2082.25 549.83 2016.43 527.381 1961.99 554.131C1907.56 580.893 1885.12 646.711 1911.87 701.146ZM2145.56 693.335C2212.38 660.499 2293.16 688.05 2325.98 754.864C2358.82 821.678 2331.27 902.462 2264.46 935.286C2228.96 952.731 2189.53 953.132 2155.44 939.66C2145.27 974.877 2120.87 1005.85 2085.37 1023.29C2018.56 1056.12 1937.77 1028.57 1904.95 961.757C1872.11 894.943 1899.66 814.159 1966.48 781.335C2001.97 763.89 2041.41 763.489 2075.49 776.962C2085.66 741.744 2110.08 710.779 2145.56 693.335ZM2054.21 623.289C2066.94 649.189 2056.26 680.519 2030.35 693.25C2004.45 705.981 1973.12 695.303 1960.39 669.391C1947.66 643.479 1958.34 612.162 1984.25 599.431C2010.16 586.712 2041.48 597.39 2054.21 623.289Z" fill="#E0E0E0"/>
<path d="M6023.39 4693.51L6339.09 3145.07C6344.45 3118.79 6370.09 3101.83 6396.35 3107.19L6417.57 3111.52C6443.84 3116.87 6460.8 3142.52 6455.44 3168.78L6139.74 4717.23C6134.38 4743.5 6108.74 4760.46 6082.46 4755.1L6061.25 4750.78C6034.98 4745.42 6018.03 4719.79 6023.39 4693.51Z" fill="#E0E0E0"/>
<path d="M6263.25 3580.26L6327.39 3265.72L6248.75 3249.68L6184.61 3564.22L6263.25 3580.26Z" fill="#E0E0E0"/>
<path d="M6174.46 3723.68L6178.52 3703.79C6183.53 3679.17 6207.57 3663.27 6232.21 3668.28L6368.38 3696.04C6393.01 3701.06 6408.9 3725.1 6403.89 3749.74L6399.83 3769.62C6394.81 3794.26 6370.77 3810.15 6346.13 3805.13L6209.97 3777.37C6185.34 3772.34 6169.44 3748.3 6174.46 3723.68Z" fill="#E0E0E0"/>
<path d="M6283.95 3200.35L6121.6 3167.25L6104.06 3253.27L6185.23 3269.82L6174.23 3323.83L6093.06 3307.28L6064.19 3448.82L6121.15 3460.43L6110.15 3514.44L6053.19 3502.83L6035.74 3588.35L6198.1 3621.45L6283.95 3200.35Z" fill="#E0E0E0"/>
<path d="M6177.88 4774.2L6204.98 4641.3L5974.63 4594.33L5947.53 4727.23L6177.88 4774.2Z" fill="#E0E0E0"/>
<path d="M6099.06 5244.8C6100.14 5239.52 6100.82 5234.25 6101.21 5229.01C6227 5242.77 6344.85 5158.66 6370.63 5032.22C6397.96 4898.15 6311.43 4767.3 6177.36 4739.97L5974.1 4698.53C5840.02 4671.2 5709.18 4757.73 5681.85 4891.79C5655.67 5020.17 5733.94 5145.53 5858.33 5179.94C5856.7 5184.79 5855.32 5189.77 5854.27 5194.9C5840.5 5262.49 5884.12 5328.47 5951.71 5342.24C6019.3 5356.02 6085.28 5312.39 6099.06 5244.8ZM5883.31 5089.31C5800.35 5072.4 5746.8 4991.43 5763.72 4908.46C5780.63 4825.5 5861.6 4771.95 5944.57 4788.88C5988.64 4797.86 6024.41 4824.92 6045.73 4860.75C6079.36 4836.13 6122.88 4825.23 6166.94 4834.21C6249.9 4851.12 6303.45 4932.09 6286.52 5015.06C6269.61 5098.02 6188.65 5151.57 6105.68 5134.64C6061.6 5125.65 6025.84 5098.6 6004.52 5062.76C5970.88 5087.4 5927.37 5098.3 5883.31 5089.31ZM5916.81 5215.88C5923.37 5183.71 5954.76 5162.95 5986.93 5169.51C6019.1 5176.07 6039.86 5207.46 6033.3 5239.63C6026.74 5271.79 5995.35 5292.56 5963.18 5286C5931.01 5279.44 5910.25 5248.05 5916.81 5215.88Z" fill="#E0E0E0"/>
<path d="M6015.85 652.907L5905.54 653.503L5908.51 1202.35L6018.81 1201.75L6015.85 652.907Z" fill="#E0E0E0"/>
<path d="M5235.57 654.699L4949.93 656.213L4951.54 959.208L5237.18 957.695L5235.57 654.699Z" fill="#EBEBEB"/>
<path d="M5519.91 652.774L5234.28 654.316L5235.91 957.312L5521.55 955.769L5519.91 652.774Z" fill="#F5F5F5"/>
<path d="M4950.35 739.716C5140.18 741.283 5330.47 740.178 5520.27 737.092C5524.16 737.032 5524.14 731.043 5520.23 731.03C5330.4 729.986 5140.12 730.909 4950.33 734.517C4946.98 734.578 4947 739.68 4950.35 739.716Z" fill="#E0E0E0"/>
<path d="M5290.87 952.281L4771.92 955.083L4773.25 1202L5292.2 1199.2L5290.87 952.281Z" fill="#EBEBEB"/>
<path d="M5807.36 949.498L5288.41 952.301L5289.74 1199.22L5808.69 1196.42L5807.36 949.498Z" fill="#F5F5F5"/>
<path d="M4772.19 1023.89C5116.94 1027.79 5462.9 1024.3 5807.63 1018.78C5811.54 1018.71 5811.5 1012.73 5807.59 1012.71C5462.82 1010.88 5116.84 1011.09 4772.15 1018.68C4768.81 1018.77 4768.84 1023.86 4772.19 1023.89Z" fill="#E0E0E0"/>
<path d="M6588.68 1202.14H4578.11V1290.6H6588.68V1202.14Z" fill="#E0E0E0"/>
<path d="M4988.91 1244.67H4907.29V1546.51H4988.91V1244.67Z" fill="#E0E0E0"/>
<path d="M6207.31 1244.67H6125.68V1546.51H6207.31V1244.67Z" fill="#E0E0E0"/>
<path d="M6123.48 448.233L6013.18 448.829L6017.25 1203.68L6127.56 1203.09L6123.48 448.233Z" fill="#EBEBEB"/>
<path d="M6295.82 588.76L6124.44 589.686L6127.74 1201.41L6299.13 1200.48L6295.82 588.76Z" fill="#F5F5F5"/>
<path d="M6294.58 706.771C6294.58 708.411 6256.2 709.735 6208.89 709.735C6161.55 709.735 6123.18 708.399 6123.18 706.771C6123.18 705.131 6161.55 703.807 6208.89 703.807C6256.21 703.807 6294.58 705.143 6294.58 706.771Z" fill="#E0E0E0"/>
<path d="M6294.58 681.077C6294.58 682.717 6256.2 684.041 6208.89 684.041C6161.55 684.041 6123.18 682.717 6123.18 681.077C6123.18 679.437 6161.55 678.113 6208.89 678.113C6256.21 678.113 6294.58 679.437 6294.58 681.077Z" fill="#E0E0E0"/>
<path d="M6294.58 1108.6C6294.58 1110.24 6256.2 1111.57 6208.89 1111.57C6161.55 1111.57 6123.18 1110.24 6123.18 1108.6C6123.18 1106.96 6161.55 1105.64 6208.89 1105.64C6256.21 1105.64 6294.58 1106.96 6294.58 1108.6Z" fill="#E0E0E0"/>
<path d="M6294.58 1082.91C6294.58 1084.55 6256.2 1085.87 6208.89 1085.87C6161.55 1085.87 6123.18 1084.55 6123.18 1082.91C6123.18 1081.27 6161.55 1079.95 6208.89 1079.95C6256.21 1079.93 6294.58 1081.27 6294.58 1082.91Z" fill="#E0E0E0"/>
<path d="M6211.64 1026.83C6210 1026.83 6208.68 965.122 6208.68 889.003C6208.68 812.859 6210 751.159 6211.64 751.159C6213.28 751.159 6214.62 812.859 6214.62 889.003C6214.62 965.122 6213.28 1026.83 6211.64 1026.83Z" fill="#E0E0E0"/>
<path d="M6482.99 739.146H6296.44V1200.87H6482.99V739.146Z" fill="#EBEBEB"/>
<path d="M6098.32 577.285C6098.32 594.791 6084.13 608.992 6066.61 608.992C6049.1 608.992 6034.9 594.803 6034.9 577.285C6034.9 559.78 6049.09 545.579 6066.61 545.579C6084.13 545.579 6098.32 559.78 6098.32 577.285Z" fill="#E0E0E0"/>
<path d="M6076.41 664.483H6056.82V1113.53H6076.41V664.483Z" fill="#E0E0E0"/>
<path d="M2495.08 3381.42L2355.36 3944.3H2411.96L2556.99 3381.42H2495.08Z" fill="#EBEBEB"/>
<path d="M2900.09 3381.42L3039.81 3944.3H2983.22L2838.18 3381.42H2900.09Z" fill="#EBEBEB"/>
<path d="M2723.75 3228.37H2657.87V3944.3H2723.75V3228.37Z" fill="#EBEBEB"/>
<path d="M3154.08 2654.19H2224.39V3249.82H3154.08V2654.19Z" fill="#E0E0E0"/>
<path d="M2922.8 3372.29H2456.17V3429.81H2922.8V3372.29Z" fill="#EBEBEB"/>
<path d="M2286.16 3172.11C2286.38 3172.11 2286.6 3175.54 2286.79 3183.01H2285.52C2284.56 3153.88 2283.87 3057.37 2283.87 2943C2284.12 2873.97 2284.37 2811.53 2284.54 2765.57C2284.84 2743.33 2285.08 2725.11 2285.26 2711.8C2285.43 2705.86 2285.58 2701.02 2285.69 2697.17C2285.84 2693.83 2285.99 2692.08 2286.15 2692.08C2286.31 2692.08 2286.47 2693.83 2286.61 2697.17C2286.72 2701.02 2286.87 2705.86 2287.04 2711.8C2287.22 2725.12 2287.46 2743.33 2287.77 2765.57C2287.94 2811.53 2288.18 2873.99 2288.43 2943C2288.43 3057.36 2287.75 3153.88 2286.79 3183.01H2285.52C2285.75 3175.54 2285.94 3172.11 2286.16 3172.11Z" fill="#F5F5F5"/>
<path d="M2355.36 3172.11C2355.58 3172.11 2355.8 3175.54 2355.99 3183.01H2354.71C2353.75 3153.88 2353.06 3057.37 2353.06 2943C2353.32 2873.97 2353.56 2811.53 2353.73 2765.57C2354.03 2743.33 2354.28 2725.11 2354.46 2711.8C2354.63 2705.86 2354.78 2701.02 2354.88 2697.17C2355.03 2693.83 2355.19 2692.08 2355.35 2692.08C2355.5 2692.08 2355.66 2693.83 2355.81 2697.17C2355.92 2701.02 2356.06 2705.86 2356.23 2711.8C2356.42 2725.12 2356.66 2743.33 2356.96 2765.57C2357.13 2811.53 2357.38 2873.99 2357.63 2943C2357.63 3057.36 2356.95 3153.88 2355.99 3183.01H2354.71C2354.95 3175.54 2355.14 3172.11 2355.36 3172.11Z" fill="#F5F5F5"/>
<path d="M2424.55 3172.11C2424.77 3172.11 2424.99 3175.54 2425.18 3183.01H2423.91C2422.95 3153.88 2422.26 3057.37 2422.26 2943C2422.51 2873.97 2422.75 2811.53 2422.92 2765.57C2423.23 2743.33 2423.47 2725.11 2423.65 2711.8C2423.82 2705.86 2423.97 2701.02 2424.08 2697.17C2424.22 2693.83 2424.38 2692.08 2424.54 2692.08C2424.7 2692.08 2424.86 2693.83 2425 2697.17C2425.11 2701.02 2425.26 2705.86 2425.43 2711.8C2425.61 2725.12 2425.85 2743.33 2426.16 2765.57C2426.33 2811.53 2426.57 2873.99 2426.82 2943C2426.82 3057.36 2426.13 3153.88 2425.18 3183.01H2423.91C2424.13 3175.54 2424.33 3172.11 2424.55 3172.11Z" fill="#F5F5F5"/>
<path d="M2493.75 3172.11C2493.97 3172.11 2494.19 3175.54 2494.38 3183.01H2493.1C2492.14 3153.88 2491.45 3057.37 2491.45 2943C2491.72 2873.97 2491.95 2811.53 2492.12 2765.57C2492.42 2743.33 2492.67 2725.11 2492.85 2711.8C2493.02 2705.86 2493.17 2701.02 2493.27 2697.17C2493.42 2693.83 2493.58 2692.08 2493.74 2692.08C2493.89 2692.08 2494.05 2693.83 2494.2 2697.17C2494.31 2701.02 2494.45 2705.86 2494.62 2711.8C2494.81 2725.12 2495.05 2743.33 2495.35 2765.57C2495.52 2811.53 2495.76 2873.99 2496.02 2943C2496.02 3057.36 2495.33 3153.88 2494.38 3183.01H2493.1C2493.32 3175.54 2493.53 3172.11 2493.75 3172.11Z" fill="#F5F5F5"/>
<path d="M2562.94 3172.11C2563.16 3172.11 2563.38 3175.54 2563.58 3183.01H2562.3C2561.34 3153.88 2560.65 3057.37 2560.65 2943C2560.9 2873.97 2561.15 2811.53 2561.32 2765.57C2561.62 2743.33 2561.86 2725.11 2562.04 2711.8C2562.21 2705.86 2562.36 2701.02 2562.47 2697.17C2562.62 2693.83 2562.77 2692.08 2562.93 2692.08C2563.09 2692.08 2563.25 2693.83 2563.39 2697.17C2563.5 2701.02 2563.65 2705.86 2563.82 2711.8C2564 2725.12 2564.24 2743.33 2564.55 2765.57C2564.72 2811.53 2564.96 2873.99 2565.22 2943C2565.22 3057.36 2564.52 3153.88 2563.58 3183.01H2562.3C2562.52 3175.54 2562.72 3172.11 2562.94 3172.11Z" fill="#F5F5F5"/>
<path d="M2632.14 3172.11C2632.36 3172.11 2632.58 3175.54 2632.77 3183.01H2631.49C2630.53 3153.88 2629.84 3057.37 2629.84 2943C2630.1 2873.97 2630.34 2811.53 2630.51 2765.57C2630.81 2743.33 2631.06 2725.11 2631.24 2711.8C2631.41 2705.86 2631.55 2701.02 2631.66 2697.17C2631.81 2693.83 2631.97 2692.08 2632.13 2692.08C2632.28 2692.08 2632.44 2693.83 2632.59 2697.17C2632.7 2701.02 2632.84 2705.86 2633.01 2711.8C2633.19 2725.12 2633.44 2743.33 2633.74 2765.57C2633.91 2811.53 2634.15 2873.99 2634.41 2943C2634.41 3057.36 2633.72 3153.88 2632.76 3183.01H2631.49C2631.71 3175.54 2631.92 3172.11 2632.14 3172.11Z" fill="#F5F5F5"/>
<path d="M2701.33 3172.11C2701.55 3172.11 2701.77 3175.54 2701.96 3183.01H2700.69C2699.73 3153.88 2699.04 3057.37 2699.04 2943C2699.29 2873.97 2699.54 2811.53 2699.71 2765.57C2700.01 2743.33 2700.25 2725.11 2700.43 2711.8C2700.6 2705.86 2700.75 2701.02 2700.86 2697.17C2701.01 2693.83 2701.16 2692.08 2701.32 2692.08C2701.48 2692.08 2701.64 2693.83 2701.78 2697.17C2701.89 2701.02 2702.04 2705.86 2702.21 2711.8C2702.39 2725.12 2702.63 2743.33 2702.94 2765.57C2703.11 2811.53 2703.35 2873.99 2703.6 2943C2703.6 3057.36 2702.91 3153.88 2701.95 3183.01H2700.68C2700.9 3175.54 2701.1 3172.11 2701.33 3172.11Z" fill="#F5F5F5"/>
<path d="M2770.53 3172.11C2770.75 3172.11 2770.97 3175.54 2771.16 3183.01H2769.88C2768.92 3153.88 2768.23 3057.37 2768.23 2943C2768.49 2873.97 2768.73 2811.53 2768.9 2765.57C2769.2 2743.33 2769.45 2725.11 2769.63 2711.8C2769.8 2705.86 2769.95 2701.02 2770.05 2697.17C2770.2 2693.83 2770.36 2692.08 2770.52 2692.08C2770.67 2692.08 2770.83 2693.83 2770.98 2697.17C2771.09 2701.02 2771.23 2705.86 2771.4 2711.8C2771.59 2725.12 2771.83 2743.33 2772.13 2765.57C2772.3 2811.53 2772.54 2873.99 2772.8 2943C2772.8 3057.36 2772.1 3153.88 2771.15 3183.01H2769.87C2770.09 3175.54 2770.3 3172.11 2770.53 3172.11Z" fill="#F5F5F5"/>
<path d="M2839.71 3172.11C2839.93 3172.11 2840.15 3175.54 2840.34 3183.01H2839.07C2838.11 3153.88 2837.42 3057.37 2837.42 2943C2837.67 2873.97 2837.91 2811.53 2838.08 2765.57C2838.39 2743.33 2838.63 2725.11 2838.81 2711.8C2838.98 2705.86 2839.13 2701.02 2839.24 2697.17C2839.38 2693.83 2839.54 2692.08 2839.7 2692.08C2839.86 2692.08 2840.01 2693.83 2840.16 2697.17C2840.27 2701.02 2840.42 2705.86 2840.59 2711.8C2840.77 2725.12 2841.01 2743.33 2841.31 2765.57C2841.48 2811.53 2841.73 2873.99 2841.98 2943C2841.98 3057.36 2841.29 3153.88 2840.34 3183.01H2839.07C2839.3 3175.54 2839.49 3172.11 2839.71 3172.11Z" fill="#F5F5F5"/>
<path d="M2908.91 3172.11C2909.13 3172.11 2909.34 3175.54 2909.54 3183.01H2908.26C2907.3 3153.88 2906.61 3057.37 2906.61 2943C2906.88 2873.97 2907.11 2811.53 2907.28 2765.57C2907.58 2743.33 2907.83 2725.11 2908.01 2711.8C2908.18 2705.86 2908.32 2701.02 2908.43 2697.17C2908.58 2693.83 2908.74 2692.08 2908.89 2692.08C2909.05 2692.08 2909.21 2693.83 2909.36 2697.17C2909.47 2701.02 2909.61 2705.86 2909.78 2711.8C2909.96 2725.12 2910.21 2743.33 2910.51 2765.57C2910.68 2811.53 2910.92 2873.99 2911.18 2943C2911.18 3057.36 2910.49 3153.88 2909.54 3183.01H2908.26C2908.49 3175.54 2908.69 3172.11 2908.91 3172.11Z" fill="#F5F5F5"/>
<path d="M2978.1 3172.11C2978.32 3172.11 2978.54 3175.54 2978.73 3183.01H2977.46C2976.5 3153.88 2975.8 3057.37 2975.8 2943C2976.06 2873.97 2976.3 2811.53 2976.47 2765.57C2976.78 2743.33 2977.02 2725.11 2977.2 2711.8C2977.37 2705.86 2977.52 2701.02 2977.63 2697.17C2977.77 2693.83 2977.93 2692.08 2978.09 2692.08C2978.25 2692.08 2978.4 2693.83 2978.55 2697.17C2978.66 2701.02 2978.81 2705.86 2978.98 2711.8C2979.16 2725.12 2979.4 2743.33 2979.7 2765.57C2979.87 2811.53 2980.12 2873.99 2980.37 2943C2980.37 3057.36 2979.68 3153.88 2978.73 3183.01H2977.46C2977.68 3175.54 2977.88 3172.11 2978.1 3172.11Z" fill="#F5F5F5"/>
<path d="M3047.3 3172.11C3047.51 3172.11 3047.73 3175.54 3047.93 3183.01H3046.65C3045.69 3153.88 3045 3057.37 3045 2943C3045.26 2873.97 3045.5 2811.53 3045.67 2765.57C3045.97 2743.33 3046.21 2725.11 3046.4 2711.8C3046.57 2705.86 3046.71 2701.02 3046.82 2697.17C3046.97 2693.83 3047.13 2692.08 3047.28 2692.08C3047.44 2692.08 3047.6 2693.83 3047.75 2697.17C3047.85 2701.02 3048 2705.86 3048.17 2711.8C3048.35 2725.12 3048.6 2743.33 3048.9 2765.57C3049.07 2811.53 3049.31 2873.99 3049.57 2943C3049.57 3057.36 3048.88 3153.88 3047.92 3183.01H3046.65C3046.87 3175.54 3047.08 3172.11 3047.3 3172.11Z" fill="#F5F5F5"/>
<path d="M3116.49 3172.11C3116.71 3172.11 3116.93 3175.54 3117.12 3183.01H3115.85C3114.89 3153.88 3114.2 3057.37 3114.2 2943C3114.45 2873.97 3114.69 2811.53 3114.86 2765.57C3115.17 2743.33 3115.41 2725.11 3115.59 2711.8C3115.76 2705.86 3115.91 2701.02 3116.02 2697.17C3116.16 2693.83 3116.32 2692.08 3116.48 2692.08C3116.64 2692.08 3116.8 2693.83 3116.94 2697.17C3117.05 2701.02 3117.2 2705.86 3117.37 2711.8C3117.55 2725.12 3117.79 2743.33 3118.09 2765.57C3118.26 2811.53 3118.51 2873.99 3118.76 2943C3118.76 3057.36 3118.07 3153.88 3117.11 3183.01H3115.85C3116.07 3175.54 3116.27 3172.11 3116.49 3172.11Z" fill="#F5F5F5"/>
<path d="M4268.6 3874.77H1845.12V4992.45H4268.6V3874.77Z" fill="#F5F5F5"/>
<path d="M4210.92 4939.78H1900.59V3933.58H4210.9V4939.78H4210.92ZM1915.66 4924.7H4195.84V3948.66H1915.66V4924.7Z" fill="#E0E0E0"/>
<path d="M4860.64 3874.77H4268.6V4992.45H4860.64V3874.77Z" fill="#E0E0E0"/>
<path d="M1908.13 4244.97C2167.76 4244.97 2427.38 4244.97 2687.01 4244.97C3097.21 4244.97 3507.4 4244.97 3917.6 4244.97C4012.86 4244.97 4108.12 4244.97 4203.39 4244.97C4207.3 4244.97 4207.31 4238.89 4203.39 4238.89C3943.76 4238.89 3684.14 4238.89 3424.52 4238.89C3014.32 4238.89 2604.13 4238.89 2193.92 4238.89C2098.66 4238.89 2003.41 4238.89 1908.14 4238.89C1904.22 4238.9 1904.21 4244.97 1908.13 4244.97Z" fill="#E0E0E0"/>
<path d="M3063.25 4241.94C3070.12 4142.72 3069.38 4037.64 3064.02 3938.33C3063.81 3934.36 3058.06 3934.35 3057.84 3938.33C3052.48 4037.64 3051.74 4142.71 3058.63 4241.94C3058.85 4244.9 3063.04 4244.9 3063.25 4241.94Z" fill="#E0E0E0"/>
<path d="M3681.06 4090.13C3681.06 4107.41 3667.06 4121.4 3649.79 4121.4C3632.51 4121.4 3618.52 4107.4 3618.52 4090.13C3618.52 4072.87 3632.51 4058.87 3649.79 4058.87C3667.05 4058.87 3681.06 4072.87 3681.06 4090.13Z" fill="#E0E0E0"/>
<path d="M2476.5 4090.13C2476.5 4107.41 2462.5 4121.4 2445.23 4121.4C2427.96 4121.4 2413.96 4107.4 2413.96 4090.13C2413.96 4072.87 2427.96 4058.87 2445.23 4058.87C2462.5 4058.87 2476.5 4072.87 2476.5 4090.13Z" fill="#E0E0E0"/>
<path d="M3087.02 4436.68C3087.02 4453.95 3073.03 4467.95 3055.75 4467.95C3038.48 4467.95 3024.48 4453.95 3024.48 4436.68C3024.48 4419.41 3038.48 4405.41 3055.75 4405.41C3073.03 4405.41 3087.02 4419.41 3087.02 4436.68Z" fill="#E0E0E0"/>
<path d="M2134.87 4992.45L2017.97 5667.44H2088.16L2310.33 4992.45H2134.87Z" fill="#E0E0E0"/>
<path d="M4097.14 4992.45L4201.48 5667.44H4131.3L3921.67 4992.45H4097.14Z" fill="#E0E0E0"/>
<path d="M4565.64 4992.45L4689.72 5667.44H4619.53L4390.17 4992.45H4565.64Z" fill="#E0E0E0"/>
<path d="M3084.92 4753C3084.92 4770.26 3070.92 4784.27 3053.65 4784.27C3036.38 4784.27 3022.38 4770.28 3022.38 4753C3022.38 4735.73 3036.38 4721.73 3053.65 4721.73C3070.92 4721.73 3084.92 4735.73 3084.92 4753Z" fill="#E0E0E0"/>
<path d="M1908.13 4591.08C2167.76 4591.08 2427.38 4591.08 2687.01 4591.08C3097.21 4591.08 3507.4 4591.08 3917.6 4591.08C4012.86 4591.08 4108.12 4591.08 4203.39 4591.08C4207.3 4591.08 4207.31 4585 4203.39 4585C3943.76 4585 3684.14 4585 3424.52 4585C3014.32 4585 2604.13 4585 2193.92 4585C2098.66 4585 2003.41 4585 1908.14 4585C1904.22 4585 1904.21 4591.08 1908.13 4591.08Z" fill="#E0E0E0"/>
<path d="M6811.71 2133.95H6220.67V2290.31H6811.71V2133.95Z" fill="#F5F5F5"/>
<path d="M6561.79 2455C6561.73 2454.94 6561.66 2453.98 6561.6 2452.16C6561.56 2450.07 6561.49 2447.43 6561.41 2444.14C6561.3 2436.78 6561.15 2426.53 6560.97 2413.37C6560.73 2386.38 6560.39 2347.58 6559.96 2298.64L6561.8 2300.48C6426.85 2300.75 6212.23 2301.17 5970.8 2301.66C5972.13 2300.32 5967.76 2304.66 5973.77 2298.64V2298.68V2298.77V2298.92V2299.24V2299.87V2301.13V2303.65V2308.68V2318.7C5973.77 2325.37 5973.77 2332.01 5973.77 2338.65C5973.77 2351.9 5973.76 2365.06 5973.76 2378.1C5973.75 2404.2 5973.73 2429.87 5973.71 2455.01L5970.77 2452.07C6139.07 2452.61 6286.34 2453.08 6391.96 2453.41C6444.57 2453.76 6486.78 2454.05 6516.28 2454.25C6530.63 2454.42 6541.85 2454.54 6549.89 2454.64C6553.51 2454.72 6556.4 2454.78 6558.69 2454.83C6560.67 2454.87 6561.71 2454.93 6561.79 2455C6561.85 2455.06 6560.92 2455.12 6559.05 2455.2C6556.87 2455.24 6554.1 2455.3 6550.62 2455.38C6542.74 2455.47 6531.72 2455.6 6517.64 2455.77C6488.31 2455.96 6446.32 2456.25 6394 2456.6C6287.86 2456.94 6139.87 2457.41 5970.76 2457.94L5967.82 2457.95V2455C5967.81 2429.85 5967.79 2404.19 5967.77 2378.09C5967.77 2365.05 5967.76 2351.89 5967.76 2338.64C5967.76 2332.01 5967.76 2325.36 5967.76 2318.69V2308.67V2303.64V2301.12V2299.86V2299.23V2298.91V2298.75V2298.67V2298.63C5973.79 2292.61 5969.45 2296.97 5970.81 2295.62C6212.24 2296.11 6426.86 2296.53 6561.81 2296.8H6563.66L6563.64 2298.63C6563.21 2348.03 6562.87 2387.19 6562.64 2414.45C6562.44 2427.43 6562.3 2437.56 6562.19 2444.81C6562.11 2447.97 6562.04 2450.49 6561.99 2452.51C6561.91 2454.22 6561.85 2455.06 6561.79 2455Z" fill="#E0E0E0"/>
<path d="M5637.25 3825.79C5637.19 3825.73 5637.13 3824.77 5637.07 3822.95C5637.02 3820.86 5636.96 3818.23 5636.87 3814.93C5636.76 3807.57 5636.62 3797.32 5636.44 3784.16C5636.19 3757.17 5635.85 3718.37 5635.43 3669.44L5637.26 3671.27C5502.31 3671.54 5287.69 3671.96 5046.26 3672.45C5047.6 3671.11 5043.23 3675.45 5049.24 3669.45V3669.49V3669.57V3669.73V3670.04V3670.68V3671.94V3674.45V3679.48V3689.51C5049.24 3696.17 5049.24 3702.82 5049.24 3709.45C5049.24 3722.71 5049.23 3735.86 5049.23 3748.91C5049.21 3775 5049.19 3800.67 5049.18 3825.82L5046.24 3822.88C5214.54 3823.41 5361.81 3823.89 5467.42 3824.21C5520.03 3824.57 5562.25 3824.86 5591.74 3825.05C5606.09 3825.22 5617.32 3825.34 5625.36 3825.44C5628.98 3825.53 5631.87 3825.59 5634.15 3825.64C5636.13 3825.66 5637.19 3825.72 5637.25 3825.79C5637.31 3825.85 5636.39 3825.92 5634.52 3825.99C5632.33 3826.04 5629.56 3826.1 5626.09 3826.18C5618.2 3826.28 5607.17 3826.4 5593.1 3826.57C5563.78 3826.77 5521.78 3827.06 5469.46 3827.41C5363.32 3827.75 5215.34 3828.21 5046.23 3828.75L5043.29 3828.76V3825.81C5043.27 3800.66 5043.25 3774.99 5043.24 3748.9C5043.24 3735.85 5043.23 3722.69 5043.23 3709.44C5043.23 3702.82 5043.23 3696.16 5043.23 3689.49V3679.47V3674.44V3671.93V3670.66V3670.03V3669.72V3669.56V3669.47V3669.44C5049.25 3663.41 5044.91 3667.76 5046.27 3666.42C5287.7 3666.91 5502.32 3667.34 5637.27 3667.6H5639.12L5639.11 3669.44C5638.67 3718.83 5638.33 3758 5638.1 3785.26C5637.91 3798.23 5637.76 3808.36 5637.65 3815.61C5637.58 3818.77 5637.51 3821.3 5637.46 3823.32C5637.37 3825.02 5637.31 3825.85 5637.25 3825.79Z" fill="#E0E0E0"/>
<path d="M2383.61 2196.44H1792.58V2352.8H2383.61V2196.44Z" fill="#F5F5F5"/>
<path d="M2133.69 2517.49C2133.63 2517.43 2133.57 2516.47 2133.51 2514.65C2133.46 2512.56 2133.4 2509.92 2133.32 2506.63C2133.21 2499.27 2133.06 2489.02 2132.87 2475.86C2132.63 2448.87 2132.28 2410.07 2131.86 2361.13L2133.69 2362.97C1998.74 2363.24 1784.12 2363.67 1542.69 2364.15C1544.03 2362.81 1539.66 2367.15 1545.67 2361.15V2361.18V2361.27V2361.43V2361.74V2362.37V2363.64V2366.15V2371.18V2381.2C1545.67 2387.87 1545.67 2394.52 1545.67 2401.15C1545.67 2414.4 1545.66 2427.56 1545.66 2440.61C1545.65 2466.7 1545.62 2492.37 1545.61 2517.52L1542.67 2514.58C1710.97 2515.11 1858.24 2515.57 1963.85 2515.91C2016.47 2516.26 2058.68 2516.56 2088.18 2516.75C2102.52 2516.92 2113.75 2517.04 2121.79 2517.14C2125.41 2517.22 2128.3 2517.28 2130.58 2517.33C2132.58 2517.37 2133.63 2517.43 2133.69 2517.49C2133.75 2517.55 2132.83 2517.61 2130.96 2517.69C2128.77 2517.73 2126 2517.79 2122.53 2517.88C2114.65 2517.98 2103.63 2518.1 2089.55 2518.27C2060.22 2518.46 2018.23 2518.75 1965.91 2519.11C1859.77 2519.45 1711.78 2519.91 1542.67 2520.44L1539.73 2520.46V2517.5C1539.72 2492.36 1539.69 2466.69 1539.68 2440.59C1539.68 2427.55 1539.67 2414.39 1539.67 2401.14C1539.67 2394.52 1539.67 2387.86 1539.67 2381.19V2371.17V2366.14V2363.62V2362.36V2361.73V2361.41V2361.26V2361.17V2361.13C1545.69 2355.11 1541.36 2359.47 1542.72 2358.12C1784.15 2358.61 1998.77 2359.03 2133.72 2359.3H2135.56L2135.55 2361.13C2135.12 2410.53 2134.78 2449.69 2134.54 2476.94C2134.35 2489.91 2134.2 2500.05 2134.09 2507.3C2134.02 2510.46 2133.95 2512.98 2133.9 2515C2133.82 2516.71 2133.75 2517.55 2133.69 2517.49Z" fill="#E0E0E0"/>
<path d="M4364.07 612.903C4364.01 612.842 4363.95 611.883 4363.88 610.06C4363.84 607.971 4363.78 605.335 4363.69 602.043C4363.58 594.681 4363.44 584.428 4363.24 571.272C4363 544.279 4362.66 505.478 4362.23 456.546L4364.07 458.38C4229.11 458.648 4014.5 459.073 3773.07 459.559C3774.4 458.223 3770.03 462.559 3776.04 456.546V456.583V456.668V456.826V457.141V457.773V459.036V461.551V466.58V476.602C3776.04 483.272 3776.04 489.929 3776.04 496.549C3776.04 509.803 3776.03 522.959 3776.03 536.006C3776.02 562.1 3775.99 587.769 3775.98 612.915L3773.04 609.975C3941.34 610.51 4088.61 610.984 4194.23 611.312C4246.84 611.664 4289.05 611.955 4318.55 612.15C4332.9 612.32 4344.12 612.441 4352.16 612.539C4355.78 612.611 4358.67 612.684 4360.96 612.733C4362.95 612.769 4364.01 612.83 4364.07 612.903C4364.13 612.964 4363.2 613.037 4361.33 613.097C4359.15 613.146 4356.38 613.207 4352.9 613.292C4345.02 613.389 4334 613.51 4319.92 613.68C4290.6 613.875 4248.6 614.166 4196.28 614.519C4090.14 614.859 3942.15 615.32 3773.04 615.855L3770.1 615.867V612.915C3770.09 587.769 3770.07 562.1 3770.05 536.006C3770.05 522.959 3770.04 509.803 3770.04 496.549C3770.04 489.929 3770.04 483.272 3770.04 476.602V466.58V461.551V459.036V457.773V457.141V456.826V456.668V456.583V456.546C3776.07 450.521 3771.73 454.87 3773.09 453.533C4014.52 454.019 4229.14 454.445 4364.09 454.712H4365.94L4365.93 456.546C4365.49 505.94 4365.15 545.117 4364.92 572.365C4364.72 585.339 4364.58 595.471 4364.47 602.723C4364.38 605.882 4364.32 608.408 4364.27 610.425C4364.19 612.126 4364.13 612.964 4364.07 612.903Z" fill="#E0E0E0"/>
<path d="M4444.21 456.546C4444.13 456.473 4444.06 455.465 4443.98 453.57C4443.92 451.323 4443.83 448.601 4443.75 445.285C4443.61 437.595 4443.43 427.136 4443.21 413.931C4442.93 386.513 4442.53 347.797 4442.05 300.189L4444.21 302.352C4352.21 302.57 4227.06 302.874 4089.12 303.202C4086.41 305.887 4092.75 299.533 4092.11 300.201V300.238V300.323V300.481V300.809V301.453V302.74V305.316V310.442V320.659C4092.11 327.449 4092.11 334.216 4092.1 340.934C4092.09 354.369 4092.09 367.647 4092.07 380.731C4092.04 406.885 4092 432.25 4091.96 456.546L4089.1 453.679C4191.61 454.226 4279.87 454.7 4343.12 455.04C4374.32 455.38 4399.32 455.635 4417.12 455.829C4425.43 455.975 4432.05 456.097 4437.08 456.194C4441.64 456.303 4444.09 456.425 4444.21 456.546C4444.33 456.668 4442.12 456.777 4437.76 456.899C4432.89 456.984 4426.46 457.105 4418.39 457.263C4400.75 457.457 4375.97 457.725 4345.06 458.053C4281.32 458.393 4192.39 458.867 4089.1 459.413L4086.23 459.425V456.546C4086.19 432.25 4086.16 406.885 4086.12 380.731C4086.11 367.647 4086.11 354.369 4086.1 340.934C4086.1 334.216 4086.1 327.449 4086.08 320.659V310.442V305.316V302.728V301.441V300.797V300.469V300.311V300.226V300.189C4085.43 300.821 4091.79 294.468 4089.12 297.164C4227.06 297.492 4352.21 297.796 4444.21 298.015H4446.39L4446.37 300.177C4445.88 348.344 4445.48 387.509 4445.2 415.243C4444.97 428.241 4444.79 438.531 4444.67 446.111C4444.5 453.108 4444.35 456.692 4444.21 456.546Z" fill="#E0E0E0"/>
<path d="M6617.81 5667.44C6617.81 5669.19 5524.94 5670.6 4177.12 5670.6C2828.84 5670.6 1736.2 5669.19 1736.2 5667.44C1736.2 5665.69 2828.84 5664.29 4177.12 5664.29C5524.93 5664.27 6617.81 5665.69 6617.81 5667.44Z" fill="#263238"/>
<path d="M3582.19 1356.92L3534.13 1259.02C3555.73 1200.16 3561.85 1134.81 3548.45 1068.85C3509.93 879.212 3324.98 756.699 3135.33 795.22C2945.69 833.742 2823.18 1018.7 2861.69 1208.34C2900.21 1397.98 3085.16 1520.49 3274.82 1481.97C3354 1465.89 3421.42 1424.22 3470.35 1367.38L3470.27 1367.56L3582.19 1356.92Z" fill="#062734"/>
<path d="M3582.18 1356.92C3582.18 1356.92 3579.94 1357.26 3575.22 1357.78C3570.24 1358.32 3563.2 1359.08 3554.03 1360.08C3534.83 1362.08 3506.79 1365 3470.39 1368.79C3469.72 1368.86 3469.12 1368.37 3469.05 1367.71C3469.03 1367.48 3469.07 1367.23 3469.17 1367.04L3469.26 1366.86L3471.29 1368.19C3442.02 1402.41 3396.2 1442.57 3330.43 1467.83C3314.09 1474.16 3296.57 1479.4 3278.11 1483.33C3259.5 1486.36 3240.24 1490.22 3220.03 1490.46C3179.81 1492.33 3136.56 1487.34 3093.8 1473.13C3051.07 1459 3008.93 1435.69 2972.04 1403.23C2935.13 1370.88 2903.57 1329.32 2882.16 1281.2C2860.44 1233.22 2850.23 1178.44 2852.55 1123.03C2854.97 1067.65 2870.25 1011.16 2899.92 961.441L2911.13 942.794L2923.95 925.325L2930.34 916.627L2937.47 908.561L2951.75 892.55C2956.68 887.411 2962.13 882.783 2967.28 877.899C2972.59 873.186 2977.45 867.974 2983.26 863.953C2994.59 855.523 3005.37 846.448 3017.62 839.633C3064.97 809.992 3118.07 792.487 3170.71 787.154C3223.45 782.173 3275.42 789.389 3321.9 805.898C3368.45 822.346 3409.51 847.918 3442.8 878.434C3476.18 908.95 3501.77 944.337 3519.82 980.465C3529.32 998.371 3535.57 1016.99 3541.83 1034.84C3546.37 1053.19 3551.56 1070.75 3553.69 1088.19C3563.62 1158 3550.96 1217.53 3535.28 1259.47L3535.23 1258.52C3550.58 1290.51 3562.41 1315.17 3570.51 1332.06C3574.35 1340.14 3577.3 1346.35 3579.39 1350.75C3581.32 1354.88 3582.18 1356.92 3582.18 1356.92C3582.18 1356.92 3580.95 1354.67 3578.78 1350.44C3576.55 1346.03 3573.39 1339.8 3569.27 1331.69C3560.95 1315.12 3548.79 1290.93 3533.03 1259.55C3532.89 1259.25 3532.88 1258.9 3532.99 1258.61C3548.12 1216.79 3560.17 1157.7 3549.94 1088.7C3547.75 1071.45 3542.51 1054.12 3537.94 1035.99C3531.66 1018.39 3525.41 1000.01 3515.94 982.372C3497.95 946.766 3472.57 911.938 3439.54 881.945C3406.61 851.951 3366.07 826.865 3320.15 810.757C3274.33 794.6 3223.14 787.603 3171.23 792.572C3119.41 797.905 3067.16 815.191 3020.61 844.395C3008.57 851.101 2997.98 860.054 2986.82 868.339C2981.09 872.299 2976.32 877.438 2971.09 882.078C2966.04 886.889 2960.67 891.432 2955.82 896.498L2941.77 912.254L2934.75 920.186L2928.46 928.751L2915.85 945.94L2904.82 964.296C2875.63 1013.22 2860.58 1068.78 2858.16 1123.26C2855.84 1177.77 2865.81 1231.72 2887.13 1278.98C2908.14 1326.38 2939.14 1367.35 2975.43 1399.32C3011.71 1431.37 3053.19 1454.48 3095.28 1468.55C3137.41 1482.7 3180.07 1487.79 3219.8 1486.11C3239.77 1485.97 3258.81 1482.23 3277.22 1479.33C3295.49 1475.53 3312.84 1470.45 3329.04 1464.28C3394.24 1439.68 3439.96 1400.25 3469.39 1366.58C3469.83 1366.07 3470.59 1366.01 3471.12 1366.44C3471.54 1366.81 3471.65 1367.43 3471.42 1367.91L3471.33 1368.08L3470.12 1366.33C3506.22 1363.22 3534.03 1360.83 3553.07 1359.19C3562.41 1358.43 3569.58 1357.83 3574.65 1357.41C3579.56 1357.04 3582.18 1356.92 3582.18 1356.92Z" fill="#263238"/>
<path d="M3043 1161.54L3088.34 1116.19L3175.8 1193.93L3347.49 1028.73L3389.59 1074.08L3169.32 1281.39L3043 1161.54Z" fill="white"/>
<path d="M3367.42 5215.54L3156.26 5415.69C3156.26 5415.69 3364.81 5653.62 3337.91 5702.9L2829.75 5409.61L3144.34 5056.08L3367.42 5215.54Z" fill="#5C9DBC"/>
<g opacity="0.6">
<path d="M3016.19 5297.66C3004.92 5294.24 2991.49 5300.88 2987.61 5311.99C2983.75 5323.11 2990.37 5336.83 3001.58 5340.44C3012.78 5344.05 3029.16 5336.58 3031.76 5325.1C3034.36 5313.62 3025.7 5297.94 3013.96 5297.12" fill="white"/>
</g>
<g opacity="0.6">
<path d="M2829.74 5409.61L2861.8 5373.59L3335.63 5669.54C3335.63 5669.54 3347.77 5686.1 3338.34 5708.09L2829.74 5409.61Z" fill="white"/>
</g>
<path d="M3165.91 5418.23C3164.31 5420.6 3151.48 5414.08 3134.65 5414.39C3117.8 5414.24 3105.06 5420.89 3103.43 5418.53C3101.49 5416.65 3114.22 5404.43 3134.6 5404.41C3154.99 5404.22 3167.83 5416.33 3165.91 5418.23Z" fill="#263238"/>
<path d="M3204.47 5472.5C3203.54 5475.2 3190.45 5472.72 3175.76 5477.81C3160.93 5482.46 3151.88 5492.26 3149.54 5490.63C3147.02 5489.57 3154.26 5474.31 3172.64 5468.34C3190.96 5462.21 3205.87 5470.16 3204.47 5472.5Z" fill="#263238"/>
<path d="M3194.88 5553.46C3192.36 5552.59 3196.6 5538.35 3211.17 5528.98C3225.68 5519.5 3240.41 5521.45 3240.17 5524.11C3240.29 5526.96 3228.45 5529.47 3216.6 5537.34C3204.57 5544.94 3197.45 5554.72 3194.88 5553.46Z" fill="#263238"/>
<path d="M3198.31 5356.93C3195.9 5358.51 3186.88 5348.17 3172.58 5340.48C3158.44 5332.51 3144.88 5330.41 3144.93 5327.53C3144.63 5324.89 3160.69 5322.46 3177.39 5331.74C3194.17 5340.89 3200.7 5355.77 3198.31 5356.93Z" fill="#263238"/>
<path d="M3231.67 5305.84C3231.07 5306.87 3220.54 5302.33 3206.87 5290.09C3200.08 5283.98 3192.66 5275.84 3185.87 5265.73C3182.48 5260.68 3179.25 5255.15 3176.35 5249.17C3174.97 5246.26 3173.2 5243.08 3172.51 5238.61C3171.41 5234.39 3173.93 5226.99 3179.5 5225C3184.45 5222.79 3189.99 5223.97 3193.62 5226.13C3197.36 5228.3 3199.86 5230.92 3202.15 5233.28C3206.84 5238.1 3210.87 5243.2 3214.28 5248.31C3221.06 5258.59 3225.34 5268.9 3227.77 5277.78C3232.59 5295.7 3230.83 5307.23 3229.71 5307.18C3228.11 5307.29 3227.27 5296.18 3221.07 5279.99C3217.98 5271.94 3213.36 5262.71 3206.74 5253.55C3203.41 5248.99 3199.58 5244.46 3195.22 5240.17C3190.83 5235.48 3186.38 5232.63 3183.56 5234.12C3182.52 5234.71 3182.22 5235.02 3182.36 5237.26C3182.6 5239.4 3183.86 5242.12 3185.2 5245C3187.79 5250.62 3190.66 5255.89 3193.62 5260.76C3199.58 5270.51 3206.02 5278.65 3211.88 5285.1C3223.59 5298 3232.53 5304.56 3231.67 5305.84Z" fill="#263238"/>
<path d="M3226.32 5307.33C3225.23 5307.16 3225.87 5295.45 3234.85 5279.18C3239.33 5271.13 3246.07 5262.2 3255.36 5254.07C3260.02 5250.04 3265.3 5246.23 3271.18 5242.94C3277.17 5239.87 3284.85 5235.52 3294.95 5240.36C3299.98 5243.26 3301.65 5249.66 3300.98 5253.82C3300.51 5258.21 3299.03 5261.3 3297.8 5264.54C3295.07 5270.92 3291.39 5276.54 3287.29 5281.31C3279.09 5290.89 3269.23 5296.98 3260.52 5300.33C3242.72 5307.11 3230.78 5303.65 3231.08 5302.7C3231.04 5300.97 3242.44 5301.61 3257.64 5293.89C3265.13 5290.09 3273.44 5284.1 3280.2 5275.46C3283.58 5271.17 3286.58 5266.24 3288.77 5260.8C3291.31 5255.03 3292.01 5249.53 3289.7 5248.83C3287.26 5247.24 3280.55 5248.58 3275.87 5251.52C3270.53 5254.37 3265.63 5257.65 3261.24 5261.13C3252.49 5268.15 3245.72 5275.89 3240.81 5282.92C3230.99 5297.09 3227.88 5307.79 3226.32 5307.33Z" fill="#263238"/>
<path d="M4956.65 5232.74L5007 5504.36C5007 5504.36 5307.72 5602.69 5309.7 5658.81L4737.41 5665.61L4695.16 5232.74H4956.65Z" fill="#5C9DBC"/>
<g opacity="0.6">
<path d="M4784.73 5495.97C4773.3 5498.78 4765.12 5511.34 4767.45 5522.88C4769.8 5534.42 4782.49 5542.84 4793.97 5540.23C4805.44 5537.62 4815.73 5522.85 4812.11 5511.64C4808.5 5500.44 4793.05 5491.37 4782.53 5496.65" fill="white"/>
</g>
<g opacity="0.6">
<path d="M4737.41 5665.61L4728.4 5624.01L5290.74 5631.27C5290.74 5631.27 5309.63 5639.32 5312.72 5663.04L4737.41 5665.61Z" fill="white"/>
</g>
<path d="M5016.58 5501.61C5016.41 5504.48 5002.06 5505.4 4987.73 5514.24C4973.17 5522.71 4965.59 5534.93 4962.99 5533.73C4960.36 5533.1 4965.08 5516.09 4982.61 5505.69C5000.05 5495.13 5017.28 5499 5016.58 5501.61Z" fill="#263238"/>
<path d="M5077.43 5528.64C5078.02 5531.43 5065.49 5535.98 5055.45 5547.85C5045.06 5559.41 5042.27 5572.45 5039.42 5572.24C5036.73 5572.62 5035.17 5555.79 5047.94 5541.29C5060.57 5526.67 5077.45 5525.92 5077.43 5528.64Z" fill="#263238"/>
<path d="M5110.46 5603.17C5107.85 5603.71 5104.23 5589.29 5112 5573.81C5119.65 5558.26 5133.31 5552.42 5134.46 5554.84C5136.01 5557.24 5127.11 5565.42 5120.92 5578.25C5114.45 5590.91 5113.32 5602.96 5110.46 5603.17Z" fill="#263238"/>
<path d="M4992.77 5438.32C4991.51 5440.89 4978.48 5436.61 4962.26 5437.29C4946.04 5437.64 4933.3 5442.74 4931.88 5440.25C4930.27 5438.14 4942.85 5427.86 4961.95 5427.32C4981.04 5426.64 4994.24 5436.11 4992.77 5438.32Z" fill="#263238"/>
<path d="M3635.73 3258.34C3626.23 3264.75 3604.62 3590.71 3635.73 3662.18L3556.58 4249.48C3556.58 4249.48 3344.27 4586.65 3301.52 4635.71C3258.78 4684.78 2981.55 5163.39 2981.55 5163.39L3294.53 5433.36C3294.53 5433.36 3838.53 4722.62 3925.97 4596.47C4063.17 4398.56 4225.12 3656.63 4225.12 3656.63L4246.21 3288.37L3635.73 3258.34Z" fill="#263238"/>
<path d="M4063.17 3728.18C4072.67 3745.59 4496.22 4396.65 4496.22 4396.65C4496.22 4396.65 4560.49 4741.52 4574.74 4893.63C4588.99 5045.73 4693.12 5436.86 4693.12 5436.86L5033.98 5410.1C5033.98 5410.1 4941.79 4403.08 4884.8 4206.82C4827.82 4010.55 4669.27 3631.32 4669.27 3631.32L4535.49 3276.45L4150.3 3283.67L4063.17 3728.18Z" fill="#263238"/>
<path d="M4304.29 3383.02C4304.49 3383.08 4303.76 3386.7 4302.16 3393.54C4300.36 3400.91 4297.92 3410.87 4294.86 3423.4C4288.12 3449.85 4278.62 3487.13 4266.94 3532.95C4243.11 3625.39 4210.09 3753.08 4171.65 3893.59C4133.17 4034.14 4095.74 4160.67 4067.19 4251.79C4052.91 4297.34 4041.09 4334.13 4032.58 4359.43C4028.44 4371.66 4025.14 4381.37 4022.71 4388.55C4020.39 4395.18 4019.06 4398.63 4018.86 4398.57C4018.65 4398.51 4019.56 4394.93 4021.49 4388.16C4023.64 4380.9 4026.56 4371.07 4030.24 4358.69C4038.12 4332.57 4049.25 4295.75 4062.92 4250.49C4090.36 4159.07 4127.08 4032.43 4165.56 3891.93C4203.4 3751.56 4237.64 3624.49 4262.63 3531.82C4275.12 3486.21 4285.27 3449.11 4292.49 3422.77C4296.04 3410.36 4298.86 3400.5 4300.95 3393.22C4302.93 3386.49 4304.07 3382.98 4304.29 3383.02Z" fill="#5C9DBC"/>
<path d="M5351.01 1846.58C5351.01 1846.58 5386.8 1818.32 5398.4 1819.21C5409.99 1820.11 5482.01 1830.5 5482.01 1830.5C5482.01 1830.5 5486.62 1860.79 5465.9 1870.78C5445.2 1880.76 5414.57 1881.57 5414.57 1881.57L5397.4 1893.64L5351.01 1846.58Z" fill="#FFCAAE"/>
<path d="M4410.78 1946.18L4975.06 2389.28L5253.98 2126.4L5261.67 2075.28C5263.86 2060.74 5267.84 2046.54 5273.54 2032.99L5345.69 1861.53L5514.42 2135.17C5514.42 2135.17 5099.62 2676.83 5026.94 2695.79C4931.17 2720.76 4454.11 2397.81 4454.11 2397.81L4410.78 1946.18Z" fill="#FFCAAE"/>
<path d="M5342.93 2012.59C5343.75 2011.31 5368.59 2036.61 5379.39 2077.64C5390.63 2118.56 5381.84 2152.89 5380.48 2152.2C5378.44 2152.07 5384.13 2118.56 5373.27 2079.28C5362.96 2039.85 5341.23 2013.72 5342.93 2012.59Z" fill="#FF9A6C"/>
<path d="M4045.52 1150.05L4034.52 1728.32C4030.64 1827.03 4025.42 1973.19 4181.77 1972.19C4317.37 1961.1 4356.66 1834.07 4360.18 1741.95C4361.84 1698.25 4363.33 1661.81 4363.8 1657.34C4363.8 1657.34 4512.12 1649.24 4528.53 1503.39C4536.46 1432.92 4540.97 1286.41 4543.51 1153.84C4546.24 1011.45 4439 890.91 4297.3 876.745L4283.21 875.336C4130.39 869.007 4047.61 997.12 4045.52 1150.05Z" fill="#FFCAAE"/>
<path d="M4364.18 1657.34C4364.18 1657.34 4271.6 1653.54 4179.67 1582.12C4179.67 1582.12 4215.39 1693.42 4362.4 1694.83L4364.18 1657.34Z" fill="#FF935C"/>
<path d="M4298.4 1228C4295.14 1228.77 4280.93 1217.29 4257.4 1210.5C4233.95 1203.54 4214.37 1205.14 4212.38 1202.83C4211.37 1201.78 4215.11 1199.76 4223.67 1198.96C4232.12 1198.13 4245.76 1198.9 4260.4 1203.17C4275.03 1207.46 4286.32 1213.97 4292.35 1219.04C4298.52 1224.17 4299.97 1227.69 4298.4 1228Z" fill="#263238"/>
<path d="M4269.54 1256.83C4268.86 1267.28 4259.46 1275.33 4248.53 1274.84C4237.62 1274.34 4229.31 1265.47 4229.98 1255.01C4230.65 1244.56 4240.06 1236.5 4250.97 1236.99C4261.9 1237.49 4270.21 1246.37 4269.54 1256.83Z" fill="#263238"/>
<path d="M4352.65 1379.15C4352.67 1377.86 4366.86 1376.85 4389.75 1376.22C4395.54 1376.2 4401.07 1375.6 4402.43 1371.8C4404.19 1367.79 4402.42 1361.38 4400.3 1354.43C4396.31 1340.02 4392.12 1324.92 4387.72 1309.11C4370.4 1244.64 4358.47 1191.85 4361.08 1191.17C4363.68 1190.5 4379.84 1242.21 4397.16 1306.69C4401.29 1322.58 4405.25 1337.71 4409 1352.21C4410.52 1358.94 4413.51 1366.7 4409.72 1375C4407.75 1379.13 4403.23 1381.81 4399.47 1382.43C4395.68 1383.18 4392.45 1382.93 4389.6 1382.81C4366.72 1381.74 4352.6 1380.44 4352.65 1379.15Z" fill="#263238"/>
<path d="M4287.9 1114.8C4285.38 1120.17 4265.89 1115.55 4242.38 1116.13C4218.86 1116.22 4199.44 1121.37 4196.85 1116.07C4195.72 1113.55 4199.5 1108.64 4207.61 1104.01C4215.66 1099.38 4228.14 1095.47 4242.25 1095.26C4256.34 1095.08 4268.88 1098.65 4276.98 1103.05C4285.15 1107.44 4289 1112.23 4287.9 1114.8Z" fill="#263238"/>
<path d="M4519.28 1166.4C4516.6 1170.76 4497.62 1165.33 4474.48 1164C4451.35 1162.25 4432.04 1165.11 4429.71 1160.41C4428.71 1158.18 4432.63 1154.32 4440.79 1151.01C4448.9 1147.71 4461.32 1145.35 4475.2 1146.27C4489.07 1147.22 4501.24 1151.22 4509.03 1155.58C4516.88 1159.94 4520.47 1164.31 4519.28 1166.4Z" fill="#263238"/>
<path d="M4046.63 1261.41C4044.09 1260.09 3943.37 1222.42 3938.98 1327.69C3934.6 1432.97 4041.2 1415.65 4041.5 1412.64C4041.82 1409.62 4046.63 1261.41 4046.63 1261.41Z" fill="#FFCAAE"/>
<path d="M4011.01 1371.41C4010.56 1371.06 4009.11 1372.61 4005.97 1373.91C4002.88 1375.17 3997.65 1375.91 3992.24 1373.62C3981.3 1369.08 3972.66 1351.03 3972.94 1332.04C3973.07 1322.46 3975.46 1313.4 3979.17 1305.99C3982.71 1298.43 3987.9 1293.25 3993.55 1292.5C3999.18 1291.44 4003 1294.95 4004.17 1297.98C4005.46 1300.98 4004.71 1303.05 4005.25 1303.26C4005.53 1303.54 4007.58 1301.6 4006.92 1297.21C4006.58 1295.1 4005.43 1292.57 4003.05 1290.45C4000.61 1288.28 3996.94 1287.08 3993.02 1287.35C3984.88 1287.57 3977.25 1294.73 3973.18 1302.87C3968.66 1311.02 3965.75 1321.18 3965.6 1331.95C3965.39 1353.2 3975.43 1373.5 3990.46 1378.53C3997.78 1380.78 4004.05 1378.8 4007.34 1376.44C4010.72 1373.95 4011.36 1371.62 4011.01 1371.41Z" fill="#FF935C"/>
<path d="M4354.54 1448.96C4354.98 1446.24 4334.47 1445.4 4316.53 1430.96C4307.59 1423.88 4301.29 1415.28 4296.6 1409.02C4291.96 1402.69 4288.68 1398.82 4287.72 1399.41C4286.81 1399.97 4288.28 1404.68 4291.8 1411.96C4295.36 1419.13 4301.44 1429.14 4311.58 1437.19C4321.61 1445.37 4333.16 1448.84 4341.25 1449.85C4349.44 1450.96 4354.51 1449.86 4354.54 1448.96Z" fill="#263238"/>
<path d="M4514.68 1216.38C4512.27 1218.65 4494.27 1216.54 4470.63 1222.96C4446.98 1229.19 4430.98 1240.4 4428.09 1239.53C4426.69 1239.18 4428.89 1235.67 4435.84 1230.68C4442.68 1225.73 4454.78 1219.45 4469.51 1215.52C4484.25 1211.58 4497.22 1211.14 4504.96 1212.2C4512.84 1213.22 4515.88 1215.33 4514.68 1216.38Z" fill="#263238"/>
<path d="M4483.12 1267.89C4482.45 1278.33 4473.04 1286.39 4462.11 1285.89C4451.21 1285.39 4442.9 1276.52 4443.56 1266.08C4444.23 1255.63 4453.65 1247.56 4464.56 1248.06C4475.48 1248.56 4483.8 1257.44 4483.12 1267.89Z" fill="#263238"/>
<path d="M4745 1027.91C4743.57 1021.99 4739.42 1017.03 4734.25 1013.79C4722.99 1006.73 4709.78 1007.26 4697.04 1006.73C4665.35 1005.37 4634.12 996.415 4606.24 981.315C4616.22 976.59 4625.6 970.759 4633.62 963.166C4650.2 947.483 4660.14 923.065 4653.32 901.296C4652.05 897.215 4649.8 892.902 4645.74 891.529C4639.3 889.367 4633.46 895.587 4628.8 900.519C4613.48 916.748 4599.53 923.515 4577.4 920.684C4563.65 918.923 4550.38 915.473 4539.72 908.439C4539.29 907.978 4538.93 907.467 4538.5 907.006C4533.45 901.503 4528.51 896.255 4523.64 891.165C4523.63 891.141 4523.61 891.116 4523.61 891.116L4523.62 891.153C4487.03 852.862 4455.4 826.173 4422.48 811.887C4374.22 790.944 4292.86 780.8 4241.64 792.778C4190.42 804.756 4143.64 844.808 4135.17 896.716C4107.3 871.837 4064.47 870.89 4029.35 883.937L4028.49 883.536C3989.44 896.291 3966.35 936.574 3953.89 975.727C3953.21 977.865 3952.6 980.04 3951.96 982.19C3938.33 1002.57 3920.07 1019.86 3898.53 1031.64C3894.73 1033.72 3890.38 1036.27 3889.81 1040.56C3889.24 1044.81 3892.75 1048.44 3896.18 1051.03C3905.27 1057.92 3915.96 1062.57 3927.14 1064.88C3923.35 1074.16 3918.95 1083.16 3913.58 1091.73C3909.02 1099 3903.59 1107.73 3907.19 1115.53C3909.99 1121.55 3917.48 1124.21 3924.08 1123.42C3930.68 1122.63 3936.6 1119.16 3942.3 1115.76C3937.71 1125.97 3933.12 1136.19 3928.53 1146.41C3942.46 1149.22 3956.98 1148.48 3970.69 1144.73C3977.92 1181.84 3985.95 1229.17 3994.79 1254.44C4010.96 1254.83 4026.38 1251.45 4036.11 1260.68C4049.34 1273.23 4054.78 1296.31 4077.53 1288.21C4089.11 1284.09 4100.21 1260.32 4104.36 1248.75C4131.88 1171.95 4142.55 1089.2 4135.53 1007.92C4152.01 991.264 4171.72 977.829 4193.24 968.572L4191.47 970.078C4232.7 956.983 4279.29 944.264 4317.53 964.478C4347.19 980.161 4364.03 1011.83 4385.85 1037.33C4427.19 1085.65 4478.26 1112.39 4541.7 1116.83C4546.24 1161.09 4540.02 1216.91 4541.08 1258.13L4580.9 1192.78L4580.92 1193.1C4583.89 1188.35 4586.36 1183.56 4588.76 1178.73L4589.57 1177.27V1177.09C4593.39 1169.35 4597.02 1161.6 4601.78 1153.99C4601.91 1154.11 4602.03 1154.23 4602.17 1154.35C4623.94 1174.63 4657.61 1145.42 4640.67 1120.97C4637.3 1116.12 4633.24 1111.76 4628.57 1108.14C4638.5 1117.98 4653.58 1122.97 4667.05 1119.23C4680.52 1115.48 4691.26 1102.24 4690.47 1088.27C4689.93 1078.73 4683.37 1070.04 4674.87 1066.06C4692.85 1067.93 4711.38 1064.49 4727.32 1055.96C4737.79 1050.35 4748.15 1040.96 4745 1027.91Z" fill="#263238"/>
<path d="M4180.75 914.732C4181.03 915.121 4174.52 918.438 4165.73 927.755C4157.02 937.036 4147.08 953.314 4141.98 975.703C4139.38 986.831 4137.6 999.307 4137.25 1012.77C4136.83 1026.23 4137.53 1040.68 4138.15 1055.9C4138.73 1071.13 4139.39 1087.21 4137.97 1103.89C4137.25 1112.21 4136.03 1120.67 4134 1129.1C4131.93 1137.38 4129.5 1146.36 4123.03 1153.36C4117.86 1159.05 4109.42 1161.42 4102.21 1159.75C4094.93 1158.25 4088.54 1154.19 4083.92 1148.76C4074.8 1137.54 4072.83 1123.54 4070.83 1111.2L4073.89 1111.65C4068.58 1122.55 4063.14 1133.31 4055.28 1141.8C4047.54 1150.35 4036.99 1155.87 4026.41 1156.54C4021.14 1156.87 4015.87 1155.88 4011.41 1153.49C4006.87 1151.12 4003.62 1147.22 4001.44 1143.13C3999.36 1138.96 3998.34 1134.43 3998.68 1130.08C3999.04 1125.74 4000.84 1121.67 4003.67 1118.83L4005.19 1120.25C3993.58 1132.79 3981.48 1139.37 3973.14 1142.98C3968.94 1144.78 3965.58 1145.84 3963.31 1146.5C3961.02 1147.11 3959.82 1147.37 3959.79 1147.27C3959.77 1147.17 3960.91 1146.73 3963.14 1145.96C3965.33 1145.12 3968.6 1143.9 3972.68 1141.96C3980.79 1138.09 3992.5 1131.32 4003.64 1118.86L4005.16 1120.28C4000.1 1125.35 3999.57 1134.5 4003.6 1141.97C4005.64 1145.65 4008.62 1149.14 4012.61 1151.14C4016.59 1153.23 4021.41 1154.1 4026.22 1153.74C4035.94 1153.04 4045.77 1147.86 4053.02 1139.73C4060.44 1131.6 4065.7 1121.13 4070.95 1110.21L4073.17 1105.58L4074 1110.67C4076.01 1122.99 4078.15 1136.42 4086.46 1146.55C4090.59 1151.42 4096.46 1155.09 4102.82 1156.38C4109.2 1157.79 4116.02 1155.86 4120.52 1150.97C4126.19 1144.92 4128.66 1136.42 4130.67 1128.27C4132.66 1120.05 4133.89 1111.77 4134.6 1103.59C4136.05 1087.2 4135.47 1071.21 4134.98 1056.01C4134.45 1040.8 4133.85 1026.29 4134.4 1012.66C4134.88 999.027 4136.83 986.393 4139.62 975.12C4145.09 952.452 4155.58 935.979 4164.74 926.832C4174.02 917.636 4180.75 914.732 4180.75 914.732Z" fill="#5C9DBC"/>
<path d="M4629.31 1069.12C4629.34 1069.17 4628.93 1069.5 4628.1 1070.09C4627.1 1070.79 4625.87 1071.62 4624.37 1072.66C4622.75 1073.81 4620.68 1075.15 4618.07 1076.46C4615.51 1077.84 4612.58 1079.52 4609.06 1080.9C4595.3 1086.99 4573.35 1092.82 4546.17 1090.49C4519.23 1088.24 4487.11 1077.83 4458.79 1055.54C4430.14 1033.75 4405.32 1002.12 4385.31 966.118C4375.15 948.127 4366.97 929.747 4357.86 912.728C4348.82 895.696 4338.75 879.916 4326.37 867.331C4314.15 854.685 4299.83 845.209 4284.92 840.629C4277.5 838.2 4269.97 837.495 4262.77 837.471C4255.55 837.665 4248.67 838.941 4242.32 840.836C4229.6 844.723 4219.25 851.417 4211.34 858.378C4203.41 865.399 4198 872.894 4194.26 879.345C4187.25 892.611 4186.66 901.224 4186.12 901.066C4186.06 901.053 4186.12 900.543 4186.28 899.535C4186.5 898.332 4186.77 896.862 4187.1 895.077C4187.91 891.177 4189.76 885.553 4193.08 878.713C4196.7 872.044 4202.05 864.281 4210.04 856.956C4218.01 849.704 4228.52 842.694 4241.58 838.528C4248.1 836.499 4255.19 835.102 4262.68 834.835C4270.14 834.774 4278.04 835.466 4285.73 837.908C4301.21 842.536 4316.03 852.243 4328.6 865.12C4341.33 877.936 4351.63 894.008 4360.78 911.136C4370 928.277 4378.18 946.621 4388.25 964.442C4408.12 1000.17 4432.56 1031.44 4460.67 1053.02C4488.48 1075.11 4519.83 1085.53 4546.35 1088.07C4573.07 1090.67 4594.75 1085.31 4608.51 1079.67C4622.41 1073.94 4629.05 1068.7 4629.31 1069.12Z" fill="#5C9DBC"/>
<path d="M4644.33 1005.22C4644.44 1005.43 4642.55 1006.67 4638.99 1008.73C4635.47 1010.87 4630.08 1013.47 4623.24 1016.2C4616.42 1019 4607.99 1021.55 4598.44 1023.61C4588.87 1025.51 4578.18 1026.82 4566.89 1026.94C4555.6 1026.94 4544.89 1025.74 4535.31 1023.94C4525.74 1021.97 4517.28 1019.51 4510.43 1016.79C4503.56 1014.13 4498.16 1011.58 4494.61 1009.49C4491.04 1007.46 4489.12 1006.24 4489.23 1006.04C4489.53 1005.47 4497.49 1009.84 4511.24 1014.52C4518.09 1016.91 4526.47 1019.08 4535.88 1020.84C4545.32 1022.44 4555.81 1023.52 4566.87 1023.52C4577.92 1023.4 4588.4 1022.21 4597.82 1020.52C4607.21 1018.66 4615.57 1016.39 4622.39 1013.92C4636.11 1009.11 4644.03 1004.65 4644.33 1005.22Z" fill="#5C9DBC"/>
<path d="M4242.59 1744.57L4392.88 1805.76C4429.7 1816.41 4499.98 1876.22 4542.22 1916.66L4717.04 2149.93L4449.76 2475.65L4242.59 1744.57Z" fill="#5C9DBC"/>
<path d="M4032.9 1634.46L4008.51 1672.66C4008.51 1672.66 3655.19 1764.8 3625.91 1835.57C3584.77 1934.95 3638.69 2243.61 3638.69 2243.61L3713.29 2908.6L3611.29 3276.56L4547.2 3292.56C4547.2 3292.56 4490.41 2327.86 4477.24 2225.74C4464.07 2123.63 4374.85 1777.4 4374.85 1777.4L4032.9 1634.46Z" fill="#5C9DBC"/>
<path d="M4461.32 2037.52C4461.43 2037.51 4461.63 2038.56 4461.92 2040.6C4462.21 2043.01 4462.59 2046 4463.04 2049.68C4463.94 2058.19 4465.16 2069.87 4466.73 2084.68C4469.86 2115.09 4473.86 2159.12 4478.48 2213.58C4487.73 2322.49 4498.28 2473.11 4508.7 2639.52C4519.11 2805.98 4528.95 2956.6 4537.07 3065.57C4541.15 3119.65 4544.46 3163.61 4546.81 3194.6C4547.87 3209.44 4548.7 3221.16 4549.31 3229.69C4549.52 3233.4 4549.68 3236.41 4549.81 3238.84C4549.88 3240.9 4549.87 3241.96 4549.76 3241.97C4549.65 3241.98 4549.46 3240.94 4549.17 3238.9C4548.86 3236.48 4548.5 3233.49 4548.05 3229.81C4547.15 3221.31 4545.92 3209.62 4544.36 3194.81C4541.22 3164.41 4537.22 3120.37 4532.61 3065.92C4523.35 2957.02 4512.81 2806.38 4502.38 2639.92C4491.97 2473.51 4482.13 2322.9 4474.02 2213.94C4469.94 2159.84 4466.61 2115.9 4464.28 2084.9C4463.22 2070.05 4462.38 2058.32 4461.77 2049.79C4461.58 2046.09 4461.41 2043.07 4461.28 2040.64C4461.2 2038.59 4461.21 2037.53 4461.32 2037.52Z" fill="#263238"/>
<path opacity="0.3" d="M3656.53 3113.3L3750.82 3148.98L3803.24 2984.25C3803.24 2984.25 3893.1 3053.14 3955.99 3044.15C4018.89 3035.17 4108.74 2984.25 4108.74 2984.25L4312.4 3022.19L4535.54 3098.06L4519.06 2822.5L3929.02 2792.56L3750.81 2813.53L3656.53 3113.3Z" fill="black"/>
<path d="M3089.22 3347.17L3241.41 3274.66C3255.48 3227.55 3269.71 3180.5 3285.24 3128.89C3349.84 3157.56 3407.49 3183.14 3467.61 3209.82C3489.39 3142.1 3508.75 3081.92 3528.86 3019.43C3592.55 3046.95 3650.42 3071.95 3711.74 3098.44C3732.47 3031.46 3751.12 2971.19 3771.01 2906.89C3823.64 2930.67 3867.86 2954.45 3914.77 2970.25C3938.67 2978.29 3970.58 2979.81 3993.33 2970.6C4059.06 2944.01 4121.97 2910.47 4188.15 2878.61C4197.64 2896.73 4203.58 2907.27 4208.79 2918.16C4240.08 2983.63 4242.23 2984.65 4309.06 2953.92C4380.2 2921.2 4451.48 2888.77 4521.93 2854.6C4551.77 2840.13 4574.56 2842.58 4605 2859.7C4836.96 2990.14 5070.32 2997.32 5294.63 2845.37C5506.96 2701.51 5599.85 2493.92 5568.59 2241.11C5537.48 1989.5 5393.91 1814.13 5156.85 1725.74C4783.21 1586.43 4377.39 1828.12 4315.18 2222.57C4310.06 2255.12 4298.12 2272.54 4268.38 2284.92C4207.48 2310.27 4148 2339.01 4088.03 2366.55C3987.54 2412.68 3987.58 2412.74 4019.5 2519.45C3999.44 2530.25 3982.79 2540.49 3965.13 2548.55C3732.27 2655.02 3111.84 2931.92 2908.48 3022.6L2837.7 3264.01L3089.22 3347.17ZM5412.1 2266.31C5360.92 2400.99 5208.85 2468.15 5074.11 2415.56C4941.15 2363.67 4873.26 2214.84 4922.05 2082.19C4972.61 1944.75 5125.58 1875.66 5262.87 1928.25C5397.87 1979.98 5463.98 2129.75 5412.1 2266.31Z" fill="#0F428E"/>
<path opacity="0.3" d="M4045.4 2693.26L2995.02 3148.6C2977.42 3156.23 2956.95 3148.15 2949.32 3130.54C2941.69 3112.94 2949.77 3092.47 2967.39 3084.84L4017.76 2629.48C4035.37 2621.85 4055.84 2629.93 4063.47 2647.55C4071.08 2665.16 4063 2685.63 4045.4 2693.26Z" fill="black"/>
<path d="M4103.06 2696.79C4103.1 2696.89 4102.06 2697.49 4099.97 2698.53C4097.55 2699.71 4094.48 2701.2 4090.65 2703.06C4081.99 2707.11 4069.9 2712.76 4054.56 2719.92C4022.68 2734.54 3977.3 2755.36 3921.39 2781C3808.85 2832.38 3653.3 2903.15 3480.97 2980.17C3308.56 3057.18 3151.84 3125.45 3037.77 3173.37C2980.79 3197.44 2934.45 3216.41 2902.35 3229.29C2886.59 3235.52 2874.2 3240.43 2865.31 3243.94C2861.32 3245.45 2858.13 3246.65 2855.61 3247.61C2853.41 3248.4 2852.27 3248.75 2852.24 3248.65C2852.2 3248.56 2853.26 3248 2855.37 3247.01C2857.82 3245.91 2860.93 3244.51 2864.82 3242.77C2873.6 3239 2885.85 3233.72 2901.41 3227.03C2933.63 3213.21 2979.51 3193.53 3036.02 3169.28C3149.62 3120.32 3306 3051.42 3478.39 2974.43C3650.48 2897.39 3806.28 2827.67 3919.56 2776.96C3975.82 2752.08 4021.49 2731.89 4053.56 2717.71C4069.13 2711.01 4081.36 2705.72 4090.14 2701.93C4094.08 2700.31 4097.24 2699.01 4099.73 2697.97C4101.88 2697.09 4103.01 2696.69 4103.06 2696.79Z" fill="#263238"/>
<path d="M4218.53 2928.04C4216.95 2928.8 4169.05 2832.31 4111.55 2712.55C4054.03 2592.75 4008.69 2495.05 4010.26 2494.29C4011.84 2493.53 4059.72 2590 4117.24 2709.81C4174.76 2829.56 4220.11 2927.29 4218.53 2928.04Z" fill="#263238"/>
<path d="M5537.01 2322.42C5537.01 2322.42 5536.63 2319.17 5536.2 2312.85C5535.8 2306.33 5535.22 2296.97 5534.47 2284.76C5534.11 2278.58 5533.71 2271.68 5533.26 2264.07C5532.47 2256.49 5530.87 2248.28 5529.55 2239.35C5528.14 2230.42 5526.62 2220.81 5525 2210.54C5523.79 2200.19 5519.95 2189.68 5517.3 2178.26C5506.93 2132.53 5485.57 2078.49 5451.85 2021.18C5417.86 1964.13 5368.8 1904.51 5301.95 1853.89C5293.56 1847.64 5285.07 1841.31 5276.48 1834.91C5267.53 1829.04 5258.1 1823.66 5248.77 1817.91C5239.26 1812.49 5230.24 1805.91 5220.03 1801.29C5209.93 1796.45 5199.74 1791.56 5189.44 1786.62C5184.28 1784.18 5179.09 1781.71 5173.88 1779.24C5168.46 1777.26 5163 1775.28 5157.54 1773.29C5146.59 1769.3 5135.54 1765.27 5124.39 1761.21C5113.13 1757.49 5101.34 1755.08 5089.68 1751.91C5077.9 1749.24 5066.32 1745.1 5054.03 1743.83C5029.67 1740.37 5005.06 1735.35 4979.56 1735.21C4966.86 1734.77 4954.06 1733.52 4941.17 1733.73C4928.28 1734.39 4915.28 1735.06 4902.2 1735.73C4895.66 1736.18 4889.07 1736.14 4882.53 1737.01C4876.01 1738.01 4869.46 1739.01 4862.9 1740.03C4849.79 1742.21 4836.47 1743.74 4823.29 1746.46C4797.3 1753.53 4770.37 1758.8 4744.77 1769.49L4725.24 1776.66C4721.98 1777.88 4718.68 1778.98 4715.46 1780.33L4706.02 1784.88C4693.41 1790.97 4680.74 1797.08 4667.99 1803.24C4655.56 1809.98 4643.63 1817.83 4631.32 1825.13C4625.3 1828.98 4618.87 1832.27 4613.13 1836.62L4595.79 1849.59C4571.86 1866.02 4550.93 1886.56 4529.01 1906.34C4519.09 1917.27 4509.11 1928.25 4499.09 1939.29L4491.56 1947.58L4484.79 1956.53L4471.32 1974.57L4457.79 1992.69L4445.93 2012.05L4434.1 2031.53L4428.16 2041.31C4426.39 2044.68 4424.82 2048.18 4423.13 2051.6C4416.5 2065.38 4409.83 2079.22 4403.15 2093.11C4397.84 2107.58 4392.52 2122.12 4387.17 2136.7C4367.98 2195.78 4357.64 2258.53 4356.79 2322.38C4357.63 2386.26 4367.94 2449.02 4387.12 2508.12C4392.47 2522.71 4397.79 2537.26 4403.09 2551.72C4409.78 2565.62 4416.44 2579.46 4423.08 2593.25L4428.11 2603.55L4434.05 2613.33L4445.9 2632.82L4457.74 2652.2L4471.29 2670.31L4484.76 2688.35L4491.51 2697.31L4499.04 2705.59C4509.07 2716.63 4519.04 2727.61 4528.98 2738.55C4550.89 2758.34 4571.82 2778.88 4595.77 2795.32L4613.1 2808.29C4618.83 2812.65 4625.27 2815.93 4631.3 2819.79C4643.6 2827.09 4655.53 2834.94 4667.96 2841.7C4680.72 2847.86 4693.4 2853.97 4706 2860.05L4715.44 2864.61C4718.66 2865.94 4721.97 2867.05 4725.22 2868.28L4744.75 2875.44C4770.34 2886.13 4797.28 2891.41 4823.27 2898.48C4836.45 2901.2 4849.78 2902.74 4862.89 2904.9C4869.46 2905.91 4876.01 2906.92 4882.53 2907.92C4889.07 2908.78 4895.68 2908.73 4902.21 2909.19C4915.29 2909.86 4928.29 2910.53 4941.18 2911.2C4954.07 2911.39 4966.88 2910.15 4979.57 2909.71C5005.08 2909.57 5029.69 2904.54 5054.05 2901.08C5066.33 2899.81 5077.92 2895.67 5089.7 2893C5101.37 2889.83 5113.15 2887.43 5124.41 2883.69C5135.56 2879.62 5146.62 2875.59 5157.56 2871.61C5163.04 2869.61 5168.48 2867.63 5173.9 2865.65C5179.11 2863.17 5184.3 2860.72 5189.45 2858.27C5199.75 2853.32 5209.94 2848.43 5220.04 2843.59C5230.24 2838.96 5239.26 2832.38 5248.78 2826.96C5258.1 2821.22 5267.54 2815.85 5276.48 2809.97C5285.07 2803.56 5293.56 2797.24 5301.95 2790.98C5368.79 2740.36 5417.85 2680.74 5451.84 2623.69C5485.55 2566.39 5506.9 2512.35 5517.28 2466.63C5519.93 2455.22 5523.76 2444.71 5524.98 2434.35C5526.59 2424.09 5528.11 2414.48 5529.52 2405.55C5530.85 2396.62 5532.45 2388.41 5533.24 2380.83C5533.68 2373.23 5534.08 2366.33 5534.43 2360.14C5535.18 2347.93 5535.77 2338.56 5536.17 2332.05C5536.63 2325.66 5537.01 2322.42 5537.01 2322.42C5537.01 2322.42 5537.05 2325.66 5536.85 2332C5536.59 2338.53 5536.23 2347.92 5535.74 2360.16C5535.47 2366.37 5535.17 2373.29 5534.84 2380.92C5534.16 2388.53 5532.64 2396.78 5531.42 2405.75C5530.09 2414.73 5528.67 2424.39 5527.14 2434.7C5526.01 2445.11 5522.27 2455.68 5519.69 2467.16C5509.64 2513.17 5488.52 2567.63 5454.91 2625.44C5421.02 2683.01 5371.88 2743.25 5304.7 2794.48C5296.26 2800.81 5287.73 2807.22 5279.08 2813.7C5270.09 2819.65 5260.6 2825.1 5251.21 2830.92C5241.64 2836.41 5232.56 2843.06 5222.3 2847.77C5212.14 2852.68 5201.88 2857.65 5191.5 2862.66C5186.3 2865.14 5181.08 2867.64 5175.83 2870.15C5170.37 2872.15 5164.89 2874.17 5159.37 2876.2C5148.34 2880.25 5137.2 2884.34 5125.97 2888.47C5114.62 2892.26 5102.74 2894.71 5090.98 2897.94C5079.1 2900.66 5067.41 2904.87 5055.03 2906.18C5030.47 2909.73 5005.64 2914.84 4979.9 2915.06C4967.08 2915.53 4954.17 2916.8 4941.16 2916.63C4928.15 2915.98 4915.03 2915.34 4901.82 2914.68C4895.23 2914.23 4888.56 2914.28 4881.96 2913.43C4875.38 2912.43 4868.77 2911.43 4862.14 2910.43C4848.89 2908.27 4835.43 2906.73 4822.12 2904C4795.86 2896.92 4768.66 2891.62 4742.78 2880.87C4736.22 2878.48 4729.65 2876.08 4723.04 2873.66C4719.75 2872.42 4716.41 2871.31 4713.15 2869.97L4703.62 2865.37C4690.87 2859.25 4678.06 2853.08 4665.17 2846.88C4652.61 2840.09 4640.54 2832.18 4628.1 2824.81C4622.02 2820.92 4615.52 2817.61 4609.71 2813.21L4592.18 2800.13C4568 2783.54 4546.81 2762.83 4524.66 2742.84C4514.62 2731.79 4504.53 2720.7 4494.39 2709.56L4486.79 2701.19L4479.95 2692.15L4466.32 2673.95L4452.63 2655.64L4440.64 2636.07L4428.66 2616.38L4422.66 2606.5L4417.57 2596.09C4410.85 2582.15 4404.11 2568.17 4397.34 2554.13C4391.97 2539.49 4386.59 2524.8 4381.18 2510.07C4361.76 2450.34 4351.34 2386.89 4350.5 2322.33C4351.35 2257.8 4361.81 2194.38 4381.23 2134.67C4386.64 2119.94 4392.03 2105.25 4397.4 2090.62C4404.17 2076.59 4410.91 2062.6 4417.62 2048.68C4419.33 2045.21 4420.91 2041.68 4422.71 2038.28L4428.71 2028.4L4440.67 2008.71L4452.66 1989.15L4466.35 1970.86L4479.98 1952.65L4486.82 1943.61L4494.43 1935.24C4504.56 1924.1 4514.65 1913.01 4524.69 1901.98C4546.83 1881.99 4568.02 1861.28 4592.21 1844.71L4609.74 1831.63C4615.54 1827.24 4622.04 1823.93 4628.13 1820.04C4640.57 1812.68 4652.62 1804.77 4665.19 1797.98C4678.08 1791.78 4690.9 1785.61 4703.63 1779.49L4713.16 1774.9C4716.41 1773.55 4719.76 1772.44 4723.05 1771.2C4729.65 1768.79 4736.23 1766.39 4742.78 1763.99C4768.66 1753.24 4795.84 1747.94 4822.11 1740.86C4835.42 1738.12 4848.88 1736.59 4862.11 1734.43C4868.74 1733.42 4875.35 1732.43 4881.94 1731.43C4888.53 1730.57 4895.2 1730.63 4901.8 1730.18C4915 1729.52 4928.12 1728.88 4941.13 1728.24C4954.14 1728.07 4967.06 1729.33 4979.87 1729.8C5005.6 1730.01 5030.45 1735.12 5055 1738.67C5067.39 1739.98 5079.07 1744.17 5090.94 1746.91C5102.7 1750.14 5114.57 1752.59 5125.93 1756.37C5137.17 1760.5 5148.31 1764.59 5159.34 1768.64C5164.85 1770.67 5170.34 1772.68 5175.8 1774.69C5181.04 1777.19 5186.27 1779.69 5191.47 1782.17C5201.84 1787.19 5212.11 1792.15 5222.26 1797.07C5232.54 1801.77 5241.61 1808.42 5251.19 1813.92C5260.57 1819.73 5270.05 1825.19 5279.05 1831.13C5287.69 1837.62 5296.23 1844.02 5304.67 1850.35C5371.85 1901.58 5420.99 1961.82 5454.9 2019.39C5488.52 2077.2 5509.64 2131.66 5519.69 2177.67C5522.27 2189.15 5526.01 2199.74 5527.14 2210.15C5528.66 2220.47 5530.09 2230.13 5531.42 2239.11C5532.64 2248.08 5534.15 2256.33 5534.84 2263.94C5535.17 2271.57 5535.47 2278.49 5535.74 2284.7C5536.23 2296.94 5536.59 2306.33 5536.85 2312.86C5537.07 2319.17 5537.01 2322.42 5537.01 2322.42Z" fill="#263238"/>
<path d="M5456.04 2172.05C5455.93 2172.05 5455.73 2170.43 5455.48 2167.3C5455.22 2163.86 5454.9 2159.26 5454.46 2153.39C5454.25 2150.31 5454.03 2146.89 5453.79 2143.15C5453.38 2139.4 5452.55 2135.34 5451.87 2130.92C5450.44 2122.09 5449.08 2111.84 5445.66 2100.71C5440.44 2078.1 5429.79 2051.4 5413.03 2023.12C5396.16 1994.94 5371.84 1965.53 5338.77 1940.59C5305.82 1915.89 5264.23 1894.87 5216.26 1886.4C5168.62 1878.24 5114.84 1879.73 5063.62 1899.21C5050.59 1903.39 5038.34 1909.84 5025.74 1915.87C5013.81 1923.09 5001.24 1929.73 4990.14 1938.77C4978.33 1946.88 4968.02 1957.02 4957.21 1966.79C4947.44 1977.6 4937.19 1988.18 4928.77 2000.45C4911.49 2024.45 4896.4 2051.12 4887.28 2080.43C4877.82 2109.57 4872.73 2140.51 4872.3 2172.01C4872.72 2203.53 4877.81 2234.48 4887.26 2263.63C4896.38 2292.97 4911.47 2319.64 4928.74 2343.64C4937.16 2355.91 4947.43 2366.5 4957.19 2377.32C4968 2387.08 4978.32 2397.23 4990.13 2405.33C5001.23 2414.37 5013.8 2421.01 5025.73 2428.23C5038.33 2434.28 5050.57 2440.73 5063.61 2444.91C5114.83 2464.38 5168.62 2465.87 5216.26 2457.7C5264.23 2449.23 5305.82 2428.22 5338.77 2403.49C5371.84 2378.54 5396.15 2349.13 5413.02 2320.96C5429.76 2292.68 5440.42 2265.98 5445.64 2243.37C5449.05 2232.24 5450.41 2222 5451.85 2213.17C5452.53 2208.75 5453.35 2204.69 5453.77 2200.94C5454.01 2197.2 5454.24 2193.78 5454.43 2190.7C5454.86 2184.83 5455.2 2180.23 5455.46 2176.79C5455.73 2173.67 5455.93 2172.05 5456.04 2172.05C5456.15 2172.05 5456.17 2173.65 5456.12 2176.81C5456.03 2180.27 5455.89 2184.9 5455.73 2190.79C5455.63 2193.9 5455.5 2197.34 5455.37 2201.11C5455.05 2204.89 5454.33 2208.98 5453.74 2213.45C5452.49 2222.37 5451.31 2232.72 5448.07 2243.99C5443.16 2266.88 5432.75 2293.99 5416.1 2322.79C5399.31 2351.48 5374.91 2381.51 5341.52 2407.07C5308.23 2432.39 5266.07 2454.01 5217.26 2462.86C5168.79 2471.41 5113.98 2470.09 5061.65 2450.39C5048.35 2446.16 5035.83 2439.62 5022.95 2433.48C5010.75 2426.15 4997.91 2419.37 4986.55 2410.19C4974.49 2401.93 4963.92 2391.61 4952.88 2381.64C4942.88 2370.62 4932.4 2359.82 4923.77 2347.31C4906.09 2322.82 4890.66 2295.57 4881.3 2265.61C4871.61 2235.84 4866.41 2204.19 4866 2172.01C4866.42 2139.85 4871.63 2108.21 4881.33 2078.44C4890.68 2048.49 4906.11 2021.25 4923.8 1996.77C4932.42 1984.25 4942.91 1973.46 4952.9 1962.44C4963.95 1952.48 4974.52 1942.16 4986.58 1933.9C4997.94 1924.72 5010.78 1917.94 5022.97 1910.63C5035.84 1904.48 5048.36 1897.94 5061.67 1893.72C5113.98 1874.02 5168.79 1872.69 5217.25 1881.24C5266.04 1890.1 5308.22 1911.71 5341.51 1937.02C5374.9 1962.58 5399.3 1992.61 5416.08 2021.29C5432.74 2050.1 5443.15 2077.21 5448.06 2100.1C5451.31 2111.37 5452.49 2121.72 5453.74 2130.65C5454.33 2135.11 5455.05 2139.21 5455.37 2142.99C5455.5 2146.76 5455.63 2150.2 5455.73 2153.31C5455.9 2159.2 5456.03 2163.84 5456.12 2167.29C5456.17 2170.45 5456.15 2172.05 5456.04 2172.05Z" fill="#263238"/>
<path opacity="0.3" d="M4669.27 1747.37V2892.65C4669.27 2892.65 4737.46 2927.77 4833.43 2947.03L4821.74 1697.17C4767.98 1707.67 4716.77 1723.58 4669.27 1747.37Z" fill="white"/>
<path d="M4586.11 2850.69C4584.36 2850.69 4582.95 2615.48 4582.95 2325.41C4582.95 2035.23 4584.37 1800.08 4586.11 1800.08C4587.85 1800.08 4589.27 2035.24 4589.27 2325.41C4589.28 2615.48 4587.86 2850.69 4586.11 2850.69Z" fill="white"/>
<path d="M4460.89 1923.36C4461.24 1923.62 4457.95 1928.79 4451.74 1937.86C4445.42 1946.86 4436.76 1960.23 4426.62 1977.03C4416.39 1993.79 4405.29 2014.38 4394.06 2037.75C4383.13 2061.27 4372.24 2087.65 4362.8 2116.05C4353.57 2144.52 4346.69 2172.23 4341.56 2197.66C4336.73 2223.14 4333.47 2246.31 4331.77 2265.87C4329.97 2285.42 4329.03 2301.32 4328.78 2312.31C4328.4 2323.31 4327.99 2329.4 4327.55 2329.42C4327.11 2329.43 4326.7 2323.34 4326.32 2312.3C4325.81 2301.26 4326.08 2285.25 4327.32 2265.52C4328.45 2245.76 4331.28 2222.34 4335.83 2196.58C4340.71 2170.87 4347.47 2142.85 4356.8 2114.08C4366.34 2085.4 4377.49 2058.83 4388.81 2035.24C4400.43 2011.78 4412.03 1991.25 4422.83 1974.67C4433.53 1958.05 4442.81 1944.99 4449.76 1936.4C4456.6 1927.75 4460.53 1923.09 4460.89 1923.36Z" fill="white"/>
<path d="M4282.44 2322.09C4283.2 2323.67 4234.87 2348.33 4174.51 2377.16C4114.13 2406 4064.59 2428.09 4063.84 2426.53C4063.09 2424.95 4111.41 2400.3 4171.79 2371.46C4232.14 2342.62 4281.69 2320.52 4282.44 2322.09Z" fill="white"/>
<path d="M3968.21 2579.19C3968.26 2579.29 3967.43 2579.8 3965.79 2580.7C3963.79 2581.74 3961.37 2582.99 3958.42 2584.54C3951.39 2588.02 3941.84 2592.76 3929.79 2598.72C3904.87 2610.94 3868.66 2628.32 3823.78 2649.5C3734.05 2691.9 3609.51 2749.26 3470.98 2810.45C3332.4 2871.63 3206.1 2925.04 3114.32 2962.8C3068.43 2981.69 3031.2 2996.75 3005.39 3006.93C2992.85 3011.82 2982.91 3015.69 2975.61 3018.53C2972.48 3019.69 2969.93 3020.62 2967.81 3021.4C2966.04 3022.02 2965.12 3022.28 2965.07 3022.18C2965.02 3022.08 2965.87 3021.61 2967.56 3020.81C2969.61 3019.87 2972.09 3018.74 2975.13 3017.36C2982.32 3014.23 2992.11 3010.01 3004.45 3004.66C3030.52 2993.58 3067.33 2977.92 3112.59 2958.68C3203.92 2919.87 3329.9 2865.83 3468.43 2804.67C3606.91 2743.5 3731.7 2686.8 3821.9 2645.45C3866.62 2624.95 3902.99 2608.3 3928.74 2596.49C3941.01 2590.96 3950.73 2586.59 3957.89 2583.37C3960.95 2582.06 3963.46 2580.99 3965.54 2580.1C3967.25 2579.41 3968.16 2579.09 3968.21 2579.19Z" fill="white"/>
<path d="M5171.79 1852.19C5171.63 1853.42 5150.82 1849.12 5117.04 1850.36C5083.47 1851.43 5036.48 1859.85 4991.11 1884.25C4945.73 1908.64 4912.77 1943.21 4893.37 1970.62C4873.71 1998.13 4865.82 2017.86 4864.7 2017.31C4864.35 2017.16 4866 2012.13 4869.89 2003.4C4873.75 1994.66 4880.19 1982.35 4889.69 1968.07C4908.43 1939.59 4941.62 1903.66 4988.1 1878.69C5034.55 1853.7 5082.82 1845.83 5116.92 1845.9C5134.06 1845.84 5147.88 1847.26 5157.31 1848.86C5166.75 1850.43 5171.86 1851.83 5171.79 1852.19Z" fill="white"/>
<path d="M5264.96 1789.28C5264.74 1789.65 5259.4 1787.2 5249.96 1782.46C5240.58 1777.6 5226.72 1771.11 5209.4 1763.69C5192.1 1756.18 5171.02 1748.4 5147.25 1740.95C5123.39 1733.81 5096.8 1727.18 5068.47 1722.29C5040.09 1717.64 5012.79 1715.2 4987.9 1714.13C4963.01 1713.39 4940.54 1713.83 4921.73 1715.26C4902.93 1716.6 4887.71 1718.2 4877.26 1719.72C4866.79 1721.1 4860.93 1721.67 4860.85 1721.24C4860.76 1720.81 4866.46 1719.43 4876.86 1717.29C4887.23 1715.02 4902.45 1712.72 4921.36 1710.8C4940.26 1708.77 4962.93 1707.86 4988.07 1708.3C5013.21 1709.05 5040.84 1711.34 5069.51 1716.05C5098.13 1720.98 5124.98 1727.87 5148.99 1735.39C5172.89 1743.21 5194.01 1751.5 5211.2 1759.6C5228.42 1767.61 5242.06 1774.76 5251.11 1780.3C5260.25 1785.73 5265.18 1788.9 5264.96 1789.28Z" fill="white"/>
<path opacity="0.3" d="M3800.64 2675.05L3842.1 2465.49L3890.93 2463.51L3915.33 2190.62L3862.83 2407.87L3809.55 2395.95L3759.12 2666.63L3800.64 2675.05Z" fill="black"/>
<path d="M4228.35 2758.9C4228.35 2758.9 4301.07 2705.98 4326.09 2697.15C4351.13 2688.32 4435.47 2673.31 4465.2 2652.01C4465.2 2652.01 4491.92 2666.4 4469.33 2689.52C4446.73 2712.64 4405.73 2736.46 4384.38 2742.78C4363.02 2749.09 4369.74 2764.47 4385.08 2769.89C4400.41 2775.31 4509.62 2793.97 4509.62 2793.97C4509.62 2793.97 4636.56 2796.69 4646.96 2809.55C4657.36 2822.42 4648.73 2839.79 4638.34 2843.42C4630.86 2846.03 4521.88 2853.31 4521.88 2853.31L4465.84 2846.65C4465.84 2846.65 4640 2878.78 4649.93 2893.47C4659.87 2908.16 4651.26 2918.12 4642.32 2923.44C4633.36 2928.76 4556.65 2913.81 4556.65 2913.81L4452.07 2900.88L4642.34 2955.35C4642.34 2955.35 4659.66 2962.8 4656.03 2977.07C4652.4 2991.35 4628.82 2994.46 4628.82 2994.46L4427.55 2955.43C4427.55 2955.43 4525.61 3024.43 4529.06 3033.43C4533.68 3045.48 4513.39 3056.49 4505.55 3051.46C4497.72 3046.43 4371.46 2992.33 4371.46 2992.33L4227.07 2926.58L4131.46 2927.73L4172.97 2750.53L4228.35 2758.9Z" fill="#FFCAAE"/>
<path d="M3795.69 2932.7L4206.11 2926.6L4198.21 2755.63L3759.13 2666.64L3822.4 2343.9L3523 2274.74C3478.99 2459.24 3464.46 2614.27 3453.55 2739.33C3453.55 2739.33 3433.02 2868.69 3579.55 2904.57C3672.8 2927.4 3795.69 2932.7 3795.69 2932.7Z" fill="#FFCAAE"/>
<path d="M3449.86 2315.54L3862.83 2407.87C3862.83 2407.87 3934.98 2138.91 3937.47 2064.27C3939.96 1989.64 3837.68 1753.7 3693.69 1801.45C3693.69 1801.45 3650.09 1792.63 3610.43 1850.92C3594.47 1874.35 3449.86 2315.54 3449.86 2315.54Z" fill="#5C9DBC"/>
<path d="M3919.49 2025.52C3918.24 2025.5 3923.17 2002.08 3914.97 1965.58C3910.9 1947.47 3903.77 1926.36 3892.68 1904.39C3881.94 1882.31 3867.69 1858.77 3844.55 1842.61C3821.44 1826.71 3795.61 1817.12 3771.44 1813.82C3747.16 1810.17 3724.82 1809.88 3706.23 1810.71C3687.59 1811.5 3672.65 1813.87 3662.51 1816.19C3652.38 1818.57 3647.01 1820.79 3646.78 1820.24C3646.69 1820.05 3647.95 1819.32 3650.48 1818.13C3652.97 1816.82 3656.85 1815.47 3661.88 1813.79C3672.01 1810.71 3687.1 1807.61 3705.96 1806.24C3724.8 1804.83 3747.41 1804.65 3772.3 1808.05C3797.28 1811.17 3824.16 1820.84 3848.24 1837.46C3872.6 1854.43 3887.44 1879.48 3897.92 1901.82C3908.92 1924.33 3915.77 1946.06 3919.35 1964.66C3922.96 1983.31 3923.12 1998.81 3922.31 2009.34C3921.82 2014.61 3921.3 2018.68 3920.67 2021.4C3920.09 2024.15 3919.69 2025.56 3919.49 2025.52Z" fill="#263238"/>
<path d="M3919.49 2159.33C3919.67 2159.37 3919.46 2161.06 3918.92 2164.26C3918.19 2168.07 3917.31 2172.68 3916.24 2178.28C3913.51 2191.29 3909.83 2208.81 3905.3 2230.37C3895.3 2275.51 3881.59 2337.43 3865.83 2408.55L3865.17 2411.52L3862.17 2410.86C3836.22 2405.09 3808.58 2398.94 3780.06 2392.6C3689.15 2371.9 3606.88 2353.18 3546.29 2339.39C3517.08 2332.44 3493.15 2326.73 3475.6 2322.55C3467.84 2320.57 3461.51 2318.96 3456.45 2317.67C3452.09 2316.48 3449.82 2315.76 3449.87 2315.54C3449.92 2315.32 3452.28 2315.64 3456.73 2316.43C3461.86 2317.41 3468.27 2318.65 3476.15 2320.16C3493.8 2323.85 3517.89 2328.88 3547.27 2335.03C3607.98 2348.35 3690.38 2366.44 3781.45 2386.44C3809.94 2392.84 3837.59 2399.06 3863.51 2404.89L3859.85 2407.2C3876.47 2336.28 3890.94 2274.53 3901.5 2229.51C3906.76 2208.12 3911.03 2190.72 3914.2 2177.82C3915.66 2172.32 3916.88 2167.77 3917.87 2164.03C3918.75 2160.9 3919.31 2159.28 3919.49 2159.33Z" fill="#263238"/>
<path d="M5542.47 2126.37C5542.47 2126.37 5554.4 2131.07 5567.76 2119.34C5581.11 2107.6 5603.35 2076.85 5593.68 2065.23C5584.01 2053.62 5559.61 2049.05 5559.61 2049.05C5559.61 2049.05 5577.32 2026.61 5569.6 2010.3C5558.58 1987.05 5536.73 1996.38 5536.73 1996.38C5536.73 1996.38 5546.93 1979.37 5537.35 1953.12C5534.68 1945.84 5529.1 1939.95 5522 1936.84L5500.9 1927.58C5500.9 1927.58 5519.79 1899.46 5498.25 1876C5493.79 1871.14 5488.06 1867.34 5481.76 1864.36C5453.89 1851.2 5420.11 1853.8 5399.48 1876.71C5416.53 1893.62 5435.57 1912.51 5431.35 1926.42C5431.35 1926.42 5342.12 1985.57 5365.17 2016.92C5380.09 2037.21 5395.6 2028.06 5395.6 2028.06C5395.6 2028.06 5373.41 2048.24 5385.14 2061.6C5388.81 2065.78 5393.89 2068.05 5399.15 2069.2C5411.57 2071.94 5419.85 2071.76 5432.63 2064.27L5447.28 2055.99C5447.28 2055.99 5441 2074.89 5453.44 2085.3C5454.47 2086.16 5455.54 2086.94 5456.61 2087.65C5467.4 2094.65 5481.59 2093.59 5492.31 2086.48L5525.46 2064.52L5528.34 2080.77C5528.34 2080.77 5508.79 2103.45 5542.47 2126.37Z" fill="#FFCAAE"/>
<path d="M5542.47 2126.37C5542.47 2126.37 5537.89 2124.36 5531.19 2117.82C5527.99 2114.46 5524.2 2109.74 5522.33 2102.92C5520.5 2096.14 5521.55 2087.33 5527.24 2079.83L5526.91 2081.02C5525.95 2075.95 5524.93 2070.53 5523.85 2064.81L5526.36 2065.89C5520.22 2070.04 5513.64 2074.5 5506.65 2079.23C5503.14 2081.6 5499.52 2084.04 5495.8 2086.55C5492.2 2089.1 5487.74 2091.75 5482.95 2093.05C5473.46 2095.94 5461.52 2094.82 5452.72 2087.61C5448.12 2084.23 5444.85 2078.62 5443.88 2072.84C5442.81 2066.98 5443.26 2061.14 5444.95 2055.2L5448.51 2058.13C5441.41 2062 5434.77 2066.4 5426.59 2070.23C5418.39 2074.12 5408.21 2074.12 5399.44 2072.01C5394.87 2071.11 5390.03 2069.41 5385.99 2066.18C5381.96 2063.26 5378.62 2057.68 5378.98 2052.1C5379.13 2046.57 5381.38 2041.75 5384.05 2037.52C5386.77 2033.25 5389.91 2029.48 5393.66 2025.88L5397.07 2030.51C5390.55 2033.9 5383.15 2033.61 5376.82 2030.73C5370.47 2027.79 5365.75 2022.95 5361.93 2017.3C5357.77 2011.19 5357.69 2003.11 5359.68 1996.55C5361.64 1989.85 5365.17 1984 5369.03 1978.51C5385.16 1956.9 5406.68 1939.8 5429.6 1923.76L5428.33 1925.47C5429.69 1920.71 5427.52 1914.67 5424.08 1909.31C5420.7 1903.86 5416.29 1898.68 5411.67 1893.67C5407.02 1888.62 5402.13 1883.77 5397.25 1878.92L5395.13 1876.8L5397.13 1874.56C5407.41 1863.04 5421.92 1855.96 5436.63 1854C5451.39 1851.95 5466.26 1854.45 5479.41 1859.96C5492.59 1865.05 5505.01 1875.12 5509.53 1889.1C5514.01 1903.14 5510.36 1917.63 5503.33 1929.17L5502.08 1924.86C5509.45 1928.13 5516.72 1931.35 5523.87 1934.52C5531.65 1938.15 5537.67 1945.06 5540.21 1952.89C5545.31 1967.65 5546.01 1983.87 5538.97 1997.68L5535.72 1993.95C5543.55 1991.03 5552.12 1991.23 5559.24 1995.07C5566.42 1998.99 5570.51 2005.62 5573.04 2012.64C5574.97 2020.11 5573.29 2027.34 5570.9 2033.53C5568.36 2039.76 5565.16 2045.27 5561.31 2050.33L5560.03 2046.9C5570.16 2049.15 5579.43 2052.38 5587.44 2057.42C5591.29 2060.11 5595.27 2062.77 5597.06 2067.8C5598.5 2072.59 5597.43 2077.09 5596.26 2081.01C5590.46 2096.49 5581.25 2107.08 5573.61 2115.25C5565.97 2123.55 5557.29 2127.54 5551.3 2127.7C5548.33 2127.92 5546.07 2127.56 5544.6 2127.2C5543.13 2126.86 5542.44 2126.47 5542.47 2126.37C5542.51 2126.12 5545.48 2127.3 5551.16 2126.54C5556.86 2125.96 5564.65 2122.02 5571.89 2113.68C5579.09 2105.54 5587.93 2094.61 5593.03 2080.04C5594.06 2076.43 5594.76 2072.4 5593.63 2069C5592.62 2065.83 5588.9 2062.95 5585.37 2060.71C5577.97 2056.19 5568.8 2053.13 5559.22 2051.17L5555.99 2050.5L5557.94 2047.74C5564.4 2038.56 5571.36 2026.02 5568.43 2014C5566.37 2008.46 5562.5 2002.34 5556.84 1999.52C5551.33 1996.5 5543.89 1996.45 5537.75 1998.79L5531.43 2001.21L5534.5 1995.07C5540.22 1983.6 5539.9 1968.29 5534.96 1954.81C5532.79 1948.26 5527.83 1942.73 5521.44 1939.77C5514.31 1936.66 5507.07 1933.5 5499.72 1930.29L5496.67 1928.97L5498.47 1925.99C5504.53 1915.96 5507.72 1902.68 5503.8 1891.08C5499.93 1879.31 5489.42 1870.49 5477.04 1865.73C5464.79 1860.64 5451 1858.39 5437.51 1860.28C5424.05 1862.11 5411.09 1868.5 5401.85 1878.86L5401.72 1874.5C5406.61 1879.33 5411.55 1884.25 5416.35 1889.44C5421.1 1894.61 5425.72 1899.98 5429.48 1906.06C5433.13 1911.94 5436.54 1919.38 5434.39 1927.36L5434.12 1928.39L5433.12 1929.08C5410.75 1944.65 5389.27 1961.79 5374.05 1982.14C5366.86 1992 5360.85 2004.88 5367.01 2014.17C5370.12 2018.88 5374.43 2023.26 5379.29 2025.46C5384.03 2027.78 5389.98 2027.73 5394.16 2025.61L5411.14 2016.98L5397.57 2030.25C5391.24 2036.43 5384.97 2044.47 5384.62 2052.29C5384.1 2060.09 5392.66 2065.38 5400.6 2066.8C5409.1 2068.8 5417.23 2068.85 5424.61 2065.52C5431.84 2062.24 5439.12 2057.64 5446.11 2053.9L5451.42 2051.06L5449.67 2056.83C5446.67 2066.7 5447.89 2078.41 5455.6 2084.09C5463.07 2090.38 5473.31 2091.52 5481.84 2089.09C5490.36 2086.75 5497.34 2080.41 5504.63 2076.15C5511.71 2071.56 5518.38 2067.24 5524.6 2063.2L5526.72 2061.83L5527.12 2064.28C5528.06 2070.03 5528.96 2075.47 5529.8 2080.56L5529.91 2081.21L5529.47 2081.75C5524.38 2088.16 5523.04 2096.25 5524.54 2102.43C5526.04 2108.73 5529.41 2113.4 5532.34 2116.81C5538.48 2123.48 5542.74 2125.96 5542.47 2126.37Z" fill="#FF9A6C"/>
<path d="M5505.42 1918.59C5506.12 1918.73 5505.21 1927.66 5499.25 1940.69C5493.43 1953.73 5481.8 1970.17 5465.54 1984.59C5449.27 1999.01 5432.47 2009.15 5420.26 2016.03C5407.99 2022.87 5400.11 2026.5 5399.67 2025.78C5399.21 2025.01 5406.32 2019.98 5417.92 2012.22C5429.47 2004.4 5445.58 1993.84 5461.32 1979.87C5477.05 1965.92 5488.66 1950.68 5495.26 1938.65C5502.01 1926.67 5504.44 1918.33 5505.42 1918.59Z" fill="#FF9A6C"/>
<path d="M5537.43 1990.44C5538.35 1990.53 5536.59 1998.09 5527.83 2005.12C5519.32 2011.91 5507.38 2020.02 5493.94 2029.08C5467.07 2047.02 5444.51 2060.39 5443.54 2058.93C5442.57 2057.48 5463.56 2041.76 5490.43 2023.82C5503.77 2014.83 5516.43 2007.09 5525.12 2001.56C5533.83 1996 5536.6 1990.12 5537.43 1990.44Z" fill="#FF9A6C"/>
<path d="M5562.21 2047.57C5563.21 2048.94 5555.73 2055.94 5544.32 2060.91C5532.92 2065.92 5522.72 2066.69 5522.38 2065.03C5521.99 2063.28 5531.04 2059.86 5541.78 2055.11C5552.54 2050.44 5561.19 2046.09 5562.21 2047.57Z" fill="#FF9A6C"/>
<path d="M5556.67 2065.57C5556.77 2067.39 5548.3 2069.05 5540.05 2074.97C5531.67 2080.7 5527.21 2088.09 5525.54 2087.38C5523.89 2086.98 5526.38 2076.76 5536.42 2069.79C5546.41 2062.74 5556.84 2063.88 5556.67 2065.57Z" fill="#FF9A6C"/>
</svg>
